<svg id="svg" version="1.1" xmlns="http://www.w3.org/2000/svg" xmlns:xlink="http://www.w3.org/1999/xlink" width="400" height="400" viewBox="0, 0, 400,400"><g id="svgg"><path id="path0" d="M239.172 78.784 C 200.541 80.549,175.368 102.980,169.960 140.457 C 169.027 146.919,169.046 146.302,168.973 173.915 L 168.904 199.907 143.621 199.907 L 118.339 199.907 118.339 228.745 L 118.339 257.583 143.630 257.583 L 168.922 257.583 168.922 327.186 L 168.922 396.789 170.089 396.989 C 182.477 399.122,201.187 399.775,215.959 398.591 C 221.785 398.124,230.570 397.047,231.069 396.739 C 231.205 396.655,231.265 375.451,231.265 327.101 L 231.265 257.583 254.395 257.583 L 277.525 257.583 277.633 257.070 C 277.811 256.217,286.328 200.513,286.328 200.199 C 286.328 199.935,283.642 199.907,258.796 199.907 L 231.265 199.907 231.265 179.571 C 231.265 157.491,231.279 157.132,232.317 152.870 C 234.887 142.320,242.131 135.274,253.010 132.743 C 257.222 131.763,257.954 131.724,273.868 131.642 L 288.754 131.565 288.754 107.033 C 288.754 93.541,288.720 82.501,288.678 82.501 C 288.636 82.501,286.263 82.169,283.405 81.762 C 271.565 80.080,260.970 79.130,250.023 78.770 C 243.933 78.570,243.861 78.570,239.172 78.784 " stroke="none" fill="#fbfbfc" fill-rule="evenodd"></path><path id="path1" d="M188.801 1.137 C 76.107 7.546,-8.577 105.899,1.694 218.446 C 9.827 307.563,76.891 380.505,165.097 396.172 C 167.127 396.532,168.817 396.827,168.855 396.827 C 168.892 396.827,168.922 365.497,168.922 327.205 L 168.922 257.583 143.630 257.583 L 118.339 257.583 118.339 228.745 L 118.339 199.907 143.621 199.907 L 168.904 199.907 168.973 173.915 C 169.046 146.302,169.027 146.919,169.960 140.457 C 175.074 105.016,197.645 83.144,233.131 79.241 C 244.580 77.981,263.470 78.929,283.405 81.762 C 286.263 82.169,288.636 82.501,288.678 82.501 C 288.720 82.501,288.754 93.541,288.754 107.033 L 288.754 131.565 273.868 131.642 C 257.954 131.724,257.222 131.763,253.010 132.743 C 242.131 135.274,234.887 142.320,232.317 152.870 C 231.279 157.132,231.265 157.491,231.265 179.571 L 231.265 199.907 258.796 199.907 C 283.642 199.907,286.328 199.935,286.328 200.199 C 286.328 200.513,277.811 256.217,277.633 257.070 L 277.525 257.583 254.395 257.583 L 231.266 257.583 231.218 327.209 L 231.171 396.836 231.638 396.742 C 231.895 396.690,233.149 396.474,234.426 396.260 C 282.328 388.261,327.114 361.228,357.645 321.885 C 404.593 261.388,412.484 178.362,377.781 110.033 C 341.887 39.359,267.763 -3.353,188.801 1.137 " stroke="none" fill="#1c74f4" fill-rule="evenodd"></path></g></svg>