<svg xmlns="http://www.w3.org/2000/svg" width="500" height="1400" viewBox="0 0 132.3 370.4"><defs/><path fill="#404040" fill-opacity=".3" d="M28.2.2h59.1l45 45v112a28.1 28.1 0 01-28.2 28.3h-76a28.1 28.1 0 01-28-28.2V28.4A28.1 28.1 0 0128 .2z"/><text x="5.4" y="115.3" style="line-height:1.25;-inkscape-font-specification:'Open Sans Ultra-Bold'" fill-opacity=".7" stroke-width=".4" font-family="Open Sans" font-size="66.9" font-weight="800" letter-spacing="0" transform="matrix(1.00487 0 0 .99515 0 .2)" word-spacing="0"><tspan style="-inkscape-font-specification:'Open Sans Ultra-Bold'" x="5.4" y="115.3" font-size="62.3">PDF</tspan></text><path fill="gray" fill-opacity=".7" d="M132.3 45.2h-34c-6.1 0-11-4.9-11-11V.2z"/><path fill="#ccc" fill-opacity=".9" d="M28.2 185.3h59.1l45 45v112a28.1 28.1 0 01-28.2 28.2h-76a28.1 28.1 0 01-28-28.1v-129a28.1 28.1 0 0128-28z"/><text x="5.4" y="301.5" style="line-height:1.25;-inkscape-font-specification:'Open Sans Ultra-Bold'" fill="#444" stroke-width=".4" font-family="Open Sans" font-size="66.9" font-weight="800" letter-spacing="0" transform="scale(1.00487 .99515)" word-spacing="0"><tspan style="-inkscape-font-specification:'Open Sans Ultra-Bold'" x="5.4" y="301.5" font-size="62.3">PDF</tspan></text><path fill="gray" fill-opacity=".7" d="M132.3 230.3h-34c-6.1 0-11-5-11-11v-34z"/></svg>