<svg preserveAspectRatio="none" viewBox="19 413 241 156" xmlns="http://www.w3.org/2000/svg" xmlns:xlink="http://www.w3.org/1999/xlink"><defs><path d="M19 413.982h241v154.872H19V413.982zm222.122 6.286c5.31.444 13.133 2.132 13.809 11.551 1.835 27.635.772 113.293.676 119.424-.097 6.042-4.539 9.152-8.788 9.507-57.748 4.177-193.428 4.443-206.078 4.177C28.09 564.57 25 558.529 25 552.487c0 0 .966-112.315 1.545-120.579.483-8.264 2.8-11.018 9.174-11.64 6.47-.533 53.596-1.777 101.301-2.222 47.609-.355 94.83 1.422 104.102 2.222z" id="a"/><mask id="b" maskContentUnits="userSpaceOnUse" maskUnits="objectBoundingBox" x="0" y="0" width="241" height="154.872" fill="#fff"><use xlink:href="#a"/></mask></defs><use mask="url(#b)" stroke-width="2" fill-rule="evenodd" xlink:href="#a"/></svg>
