<svg id="svg" version="1.1" width="400" height="400" viewBox="0 0 400 400" xmlns="http://www.w3.org/2000/svg" xmlns:xlink="http://www.w3.org/1999/xlink" ><g id="svgg"><path id="path0" d="M184.093 48.334 C 183.091 48.970,182.800 51.526,182.800 59.697 L 182.800 68.000 126.062 68.000 C 62.120 68.000,68.000 67.689,68.000 71.068 L 68.000 72.673 65.823 73.160 L 63.647 73.647 63.170 75.778 C 62.708 77.841,62.644 77.916,61.157 78.115 C 59.083 78.393,58.313 79.282,58.084 81.664 C 57.929 83.276,57.718 83.727,56.985 84.006 C 55.937 84.404,54.000 86.377,54.000 87.047 C 54.000 87.297,53.730 87.726,53.400 88.000 C 53.004 88.329,52.800 89.223,52.800 90.629 L 52.800 92.760 50.500 92.880 L 48.200 93.000 48.081 95.500 L 47.962 98.000 45.624 98.000 C 42.979 98.000,42.800 98.192,42.800 101.033 C 42.800 102.781,42.785 102.800,41.419 102.800 C 40.659 102.800,39.579 103.009,39.019 103.264 L 38.000 103.728 38.000 115.015 C 38.000 127.754,37.861 127.200,41.145 127.598 C 42.304 127.739,42.962 128.007,42.900 128.312 C 42.845 128.580,43.070 128.800,43.400 128.800 C 43.730 128.800,44.000 128.953,44.000 129.140 C 44.000 129.326,44.945 129.481,46.100 129.483 C 52.744 129.494,52.475 129.429,54.800 131.600 C 55.978 132.700,57.045 133.606,57.171 133.613 C 57.626 133.640,59.200 135.138,59.200 135.544 C 59.200 135.773,59.429 136.104,59.710 136.280 C 59.990 136.456,60.539 137.103,60.931 137.718 C 61.322 138.333,62.037 138.989,62.521 139.175 C 63.681 139.624,64.940 141.053,65.789 142.885 C 66.167 143.702,66.826 144.481,67.251 144.616 C 68.376 144.973,70.000 146.586,70.000 147.346 C 70.000 147.706,70.180 148.000,70.400 148.000 C 70.620 148.000,70.800 148.172,70.800 148.382 C 70.800 148.983,72.773 150.800,73.425 150.800 C 73.748 150.800,74.298 151.398,74.647 152.129 C 76.364 155.730,73.787 155.580,134.600 155.601 C 195.640 155.622,189.468 155.158,189.283 159.704 C 189.088 164.503,195.031 163.974,139.641 164.128 C 90.663 164.265,88.826 164.323,86.000 165.805 C 83.193 167.277,82.466 167.600,81.938 167.613 C 81.180 167.630,79.476 169.209,78.583 170.721 C 78.153 171.449,77.477 172.018,77.014 172.043 C 75.999 172.096,73.900 172.279,73.500 172.348 C 73.137 172.411,73.093 235.910,73.455 238.545 C 73.727 240.533,75.295 242.000,77.147 242.000 C 78.022 242.000,78.248 243.548,78.010 247.900 C 77.971 248.615,78.127 249.200,78.357 249.200 C 78.587 249.200,78.676 248.885,78.555 248.500 C 78.374 247.924,78.448 247.941,78.975 248.600 C 80.958 251.078,80.856 251.012,81.455 250.192 C 81.755 249.782,82.000 249.661,82.000 249.924 C 82.000 250.766,82.736 250.433,83.415 249.282 C 83.875 248.503,84.458 248.126,85.338 248.038 C 87.536 247.818,87.780 247.762,88.703 247.260 C 91.032 245.993,95.179 245.874,141.400 245.745 C 194.808 245.596,189.461 245.145,189.283 249.785 C 189.169 252.747,188.814 253.730,186.461 257.600 C 185.993 258.370,185.438 259.360,185.228 259.800 C 185.018 260.240,184.386 261.024,183.823 261.542 L 182.800 262.484 182.800 305.465 C 182.800 349.718,182.876 351.994,184.347 352.004 C 184.706 352.007,185.675 352.120,186.500 352.257 C 187.866 352.483,188.000 352.423,188.000 351.596 C 188.000 350.421,189.953 348.562,191.556 348.210 C 192.245 348.058,193.301 347.690,193.904 347.390 C 198.490 345.111,222.311 345.079,226.696 347.346 C 227.409 347.715,228.084 348.013,228.196 348.008 C 230.646 347.911,231.058 348.052,231.753 349.228 C 232.183 349.956,232.701 350.370,233.026 350.245 C 233.328 350.130,233.681 350.207,233.811 350.417 C 234.221 351.081,234.640 350.843,235.784 349.300 C 236.395 348.475,236.789 348.115,236.660 348.500 C 236.507 348.956,236.630 349.200,237.013 349.200 C 237.485 349.200,237.600 348.505,237.600 345.645 L 237.600 342.089 238.945 341.837 C 242.029 341.258,241.787 344.586,241.906 301.158 L 242.012 262.400 239.787 262.400 C 237.355 262.400,236.153 261.552,234.973 259.004 C 234.667 258.342,233.675 256.630,232.770 255.200 C 230.600 251.770,230.027 247.264,231.646 246.343 C 232.434 245.894,241.764 245.786,285.400 245.721 C 345.549 245.631,344.040 245.721,345.752 242.131 C 346.111 241.378,346.694 240.795,347.094 240.788 C 347.839 240.775,350.129 237.984,350.560 236.564 C 350.699 236.104,351.305 235.477,351.907 235.170 C 353.344 234.435,354.784 233.119,354.793 232.531 C 354.804 231.784,356.838 229.566,357.872 229.173 C 358.390 228.976,358.988 228.357,359.201 227.797 C 359.414 227.237,359.861 226.675,360.194 226.547 C 360.527 226.419,360.800 226.145,360.800 225.938 C 360.800 225.492,362.844 223.631,363.354 223.613 C 363.549 223.606,364.099 223.195,364.576 222.700 C 367.418 219.751,367.475 219.731,373.800 219.470 C 376.262 219.369,377.598 218.906,377.472 218.200 C 377.432 217.980,378.254 217.702,379.298 217.582 C 382.307 217.236,382.200 217.695,382.200 205.148 C 382.200 192.516,382.271 192.800,379.124 192.800 L 377.600 192.800 377.600 191.033 C 377.600 188.189,377.423 188.000,374.757 188.000 L 372.400 188.000 372.400 186.033 C 372.400 183.009,372.229 182.800,369.757 182.800 L 367.600 182.800 367.600 180.587 C 367.600 178.990,367.433 178.311,367.000 178.145 C 366.670 178.018,366.400 177.617,366.400 177.253 C 366.400 176.528,364.598 174.400,363.984 174.400 C 363.048 174.400,362.000 172.743,362.000 171.262 C 362.000 169.421,361.106 168.464,359.077 168.135 C 357.785 167.925,357.629 167.758,357.385 166.310 C 357.042 164.280,356.140 163.389,354.099 163.062 C 352.500 162.807,352.471 162.772,352.199 160.795 C 351.844 158.210,351.410 158.000,346.435 158.000 L 342.417 158.000 342.308 113.568 C 342.202 70.112,342.183 69.123,341.424 68.568 C 340.763 68.085,333.287 68.000,291.324 68.000 L 242.000 68.000 242.000 64.444 C 242.000 60.408,241.496 59.372,239.151 58.585 L 237.800 58.132 237.581 53.887 C 237.241 47.301,240.487 47.999,210.238 48.006 C 196.137 48.009,184.372 48.157,184.093 48.334 M225.213 60.414 L 226.400 61.628 226.400 69.718 C 226.400 77.664,226.416 77.818,227.300 78.404 C 228.083 78.923,234.737 79.014,278.636 79.106 L 329.072 79.212 330.036 80.238 L 331.000 81.264 331.120 114.332 C 331.242 148.238,331.176 149.933,329.696 150.659 C 329.313 150.846,306.320 151.090,278.600 151.200 C 238.570 151.359,228.015 151.506,227.300 151.914 C 225.891 152.719,225.891 167.471,227.300 168.404 C 228.085 168.924,235.317 169.013,283.800 169.099 C 314.380 169.154,339.801 169.291,340.291 169.405 C 341.831 169.761,345.835 173.845,346.766 176.008 C 347.237 177.104,347.881 178.000,348.198 178.000 C 349.108 178.000,351.410 180.543,351.833 182.014 C 352.132 183.057,352.506 183.428,353.524 183.692 C 354.800 184.023,356.395 185.934,356.399 187.136 C 356.400 187.706,357.947 189.164,358.574 189.187 C 359.246 189.211,360.800 190.922,360.800 191.639 C 360.800 192.618,362.724 194.800,363.587 194.800 C 364.427 194.800,364.987 195.416,365.403 196.800 C 365.675 197.708,366.712 198.840,369.743 201.542 C 370.688 202.384,370.799 202.765,370.787 205.142 C 370.773 208.063,370.607 208.382,368.057 210.374 C 367.052 211.159,366.011 212.442,365.599 213.402 C 365.103 214.559,364.458 215.271,363.490 215.731 C 362.166 216.359,361.067 217.971,360.739 219.765 C 360.663 220.185,360.060 220.725,359.400 220.965 C 357.051 221.817,356.400 222.382,356.400 223.570 C 356.400 225.074,355.327 226.279,353.612 226.702 C 352.502 226.976,352.174 227.287,351.977 228.251 C 351.470 230.731,350.683 231.933,349.409 232.172 C 348.400 232.361,347.998 232.799,347.087 234.700 C 345.095 238.860,344.812 239.204,342.469 240.320 L 340.200 241.400 283.733 241.600 C 252.676 241.710,227.147 241.919,227.002 242.065 C 226.856 242.210,226.753 263.720,226.773 289.865 C 226.810 339.597,226.821 339.249,225.050 340.573 C 223.561 341.685,198.848 342.081,196.339 341.032 C 193.416 339.811,193.600 343.244,193.600 289.882 C 193.600 246.667,193.539 242.062,192.967 241.843 C 192.619 241.709,169.894 241.586,142.467 241.570 C 89.148 241.537,90.340 241.582,89.302 239.566 C 88.914 238.814,88.826 231.159,88.902 204.932 L 89.000 171.264 89.970 170.232 L 90.939 169.200 141.738 169.200 C 188.446 169.200,192.596 169.147,193.269 168.538 C 194.375 167.536,194.383 152.871,193.277 151.870 C 192.617 151.272,187.663 151.207,135.645 151.108 C 83.952 151.010,78.692 150.941,78.266 150.358 C 78.008 150.005,77.393 149.588,76.898 149.431 C 76.404 149.274,76.000 148.904,76.000 148.609 C 76.000 148.313,75.495 147.646,74.877 147.127 C 74.204 146.560,73.541 145.416,73.219 144.269 C 72.771 142.669,72.499 142.320,71.551 142.130 C 70.145 141.849,69.653 141.268,68.616 138.660 C 67.924 136.917,67.619 136.580,66.636 136.467 C 65.323 136.317,64.033 135.001,64.013 133.789 C 63.993 132.530,62.919 131.290,61.600 131.000 C 60.281 130.710,59.207 129.470,59.187 128.211 C 59.170 127.198,58.145 125.978,56.671 125.217 C 56.049 124.896,55.308 124.086,55.024 123.417 C 54.539 122.277,53.519 121.111,51.038 118.858 C 48.864 116.885,49.592 112.448,52.462 110.174 C 53.244 109.555,54.765 107.556,55.329 106.408 C 55.597 105.862,56.179 105.232,56.622 105.008 C 57.858 104.383,59.070 103.100,59.381 102.087 C 59.759 100.860,61.219 99.332,62.194 99.144 C 62.650 99.056,63.417 98.175,64.004 97.064 C 65.002 95.177,66.550 93.627,67.454 93.609 C 67.894 93.600,69.200 91.272,69.200 90.498 C 69.200 89.993,71.621 88.000,72.234 88.000 C 72.497 88.000,72.984 87.325,73.316 86.500 C 73.648 85.675,74.652 84.280,75.547 83.400 C 77.207 81.769,77.339 81.655,79.354 80.094 L 80.508 79.200 136.522 79.200 C 188.083 79.200,192.595 79.147,193.269 78.538 C 193.930 77.940,194.000 77.123,194.000 70.027 C 194.000 63.286,194.096 62.038,194.682 61.189 C 196.058 59.192,195.786 59.226,210.313 59.213 L 224.027 59.200 225.213 60.414 M101.696 107.195 C 100.810 108.613,101.013 122.507,101.931 123.338 C 103.106 124.401,127.571 124.337,128.538 123.269 C 129.585 122.112,129.524 108.017,128.469 107.062 C 127.234 105.945,102.400 106.068,101.696 107.195 M326.388 156.217 C 328.660 156.557,330.851 157.013,331.259 157.231 C 331.990 157.623,332.283 158.399,331.700 158.401 C 331.535 158.402,330.883 159.361,330.252 160.532 C 328.352 164.055,332.402 163.779,281.400 163.858 C 230.497 163.937,232.002 163.993,231.323 162.000 C 230.144 158.545,230.754 156.435,233.058 155.990 C 236.408 155.343,321.933 155.551,326.388 156.217 M291.794 197.300 C 291.672 197.795,291.624 201.620,291.686 205.800 L 291.800 213.400 305.200 213.400 L 318.600 213.400 318.709 205.451 C 318.784 199.926,318.678 197.335,318.360 196.951 C 317.988 196.504,315.469 196.400,304.959 196.400 L 292.015 196.400 291.794 197.300 M78.000 250.124 C 78.000 250.411,78.282 250.996,78.626 251.424 C 79.244 252.191,79.247 252.191,78.863 251.417 C 78.572 250.829,78.640 250.508,79.137 250.129 C 79.732 249.677,79.708 249.624,78.900 249.613 C 78.405 249.606,78.000 249.836,78.000 250.124 M236.224 350.230 C 236.651 350.576,236.775 350.745,236.500 350.606 C 235.935 350.320,235.804 351.032,236.358 351.374 C 236.555 351.496,236.825 351.312,236.958 350.965 C 237.369 349.893,237.233 349.600,236.324 349.600 C 235.464 349.600,235.462 349.612,236.224 350.230 " stroke="none" fill="#f4f4f4" fill-rule="evenodd"></path><path id="path1" d="M195.982 59.713 C 194.118 61.181,194.000 61.795,194.000 70.027 C 194.000 77.123,193.930 77.940,193.269 78.538 C 192.595 79.147,188.083 79.200,136.522 79.200 L 80.508 79.200 79.354 80.094 C 77.339 81.655,77.207 81.769,75.547 83.400 C 74.652 84.280,73.648 85.675,73.316 86.500 C 72.984 87.325,72.497 88.000,72.234 88.000 C 71.621 88.000,69.200 89.993,69.200 90.498 C 69.200 91.272,67.894 93.600,67.454 93.609 C 66.550 93.627,65.002 95.177,64.004 97.064 C 63.417 98.175,62.650 99.056,62.194 99.144 C 61.219 99.332,59.759 100.860,59.381 102.087 C 59.070 103.100,57.858 104.383,56.622 105.008 C 56.179 105.232,55.597 105.862,55.329 106.408 C 54.765 107.556,53.244 109.555,52.462 110.174 C 49.592 112.448,48.864 116.885,51.038 118.858 C 53.519 121.111,54.539 122.277,55.024 123.417 C 55.308 124.086,56.049 124.896,56.671 125.217 C 58.145 125.978,59.170 127.198,59.187 128.211 C 59.207 129.470,60.281 130.710,61.600 131.000 C 62.919 131.290,63.993 132.530,64.013 133.789 C 64.033 135.001,65.323 136.317,66.636 136.467 C 67.619 136.580,67.924 136.917,68.616 138.660 C 69.653 141.268,70.145 141.849,71.551 142.130 C 72.499 142.320,72.771 142.669,73.219 144.269 C 73.541 145.416,74.204 146.560,74.877 147.127 C 75.495 147.646,76.000 148.313,76.000 148.609 C 76.000 148.904,76.404 149.274,76.898 149.431 C 77.393 149.588,78.008 150.005,78.266 150.358 C 78.692 150.941,83.952 151.010,135.645 151.108 C 187.663 151.207,192.617 151.272,193.277 151.870 C 194.383 152.871,194.375 167.536,193.269 168.538 C 192.596 169.147,188.446 169.200,141.738 169.200 L 90.939 169.200 89.970 170.232 L 89.000 171.264 88.902 204.932 C 88.826 231.159,88.914 238.814,89.302 239.566 C 90.340 241.582,89.148 241.537,142.467 241.570 C 169.894 241.586,192.619 241.709,192.967 241.843 C 193.539 242.062,193.600 246.667,193.600 289.882 C 193.600 343.244,193.416 339.811,196.339 341.032 C 198.848 342.081,223.561 341.685,225.050 340.573 C 226.821 339.249,226.810 339.597,226.773 289.865 C 226.753 263.720,226.856 242.210,227.002 242.065 C 227.147 241.919,252.676 241.710,283.733 241.600 L 340.200 241.400 342.469 240.320 C 344.812 239.204,345.095 238.860,347.087 234.700 C 347.998 232.799,348.400 232.361,349.409 232.172 C 350.683 231.933,351.470 230.731,351.977 228.251 C 352.174 227.287,352.502 226.976,353.612 226.702 C 355.327 226.279,356.400 225.074,356.400 223.570 C 356.400 222.382,357.051 221.817,359.400 220.965 C 360.060 220.725,360.663 220.185,360.739 219.765 C 361.067 217.971,362.166 216.359,363.490 215.731 C 364.458 215.271,365.103 214.559,365.599 213.402 C 366.011 212.442,367.052 211.159,368.057 210.374 C 370.607 208.382,370.773 208.063,370.787 205.142 C 370.799 202.765,370.688 202.384,369.743 201.542 C 366.712 198.840,365.675 197.708,365.403 196.800 C 364.987 195.416,364.427 194.800,363.587 194.800 C 362.724 194.800,360.800 192.618,360.800 191.639 C 360.800 190.922,359.246 189.211,358.574 189.187 C 357.947 189.164,356.400 187.706,356.399 187.136 C 356.395 185.934,354.800 184.023,353.524 183.692 C 352.506 183.428,352.132 183.057,351.833 182.014 C 351.410 180.543,349.108 178.000,348.198 178.000 C 347.881 178.000,347.237 177.104,346.766 176.008 C 345.835 173.845,341.831 169.761,340.291 169.405 C 339.801 169.291,314.380 169.154,283.800 169.099 C 235.317 169.013,228.085 168.924,227.300 168.404 C 226.419 167.820,226.400 167.649,226.400 160.118 C 226.400 152.562,226.416 152.419,227.300 151.914 C 228.015 151.506,238.570 151.359,278.600 151.200 C 306.320 151.090,329.313 150.846,329.696 150.659 C 331.176 149.933,331.242 148.238,331.120 114.332 L 331.000 81.264 330.036 80.238 L 329.072 79.212 278.636 79.106 C 234.737 79.014,228.083 78.923,227.300 78.404 C 226.416 77.818,226.400 77.664,226.400 69.718 L 226.400 61.628 225.213 60.414 L 224.027 59.200 210.313 59.213 C 200.155 59.222,196.440 59.352,195.982 59.713 M224.146 61.229 L 225.200 62.058 225.200 69.954 L 225.200 77.850 226.426 79.025 L 227.652 80.200 278.326 80.411 C 306.197 80.527,329.045 80.662,329.100 80.711 C 329.155 80.760,329.200 81.055,329.200 81.367 C 329.200 81.678,329.384 81.995,329.608 82.069 C 329.878 82.159,330.103 93.257,330.274 114.916 L 330.532 147.626 329.187 149.013 L 327.843 150.400 278.022 150.405 C 229.307 150.411,226.400 150.461,226.400 151.303 C 226.400 151.528,226.167 151.912,225.882 152.156 C 225.144 152.789,225.434 167.485,226.206 168.540 C 227.212 169.916,229.778 169.981,283.640 169.990 C 343.290 170.001,339.040 169.792,342.143 172.871 C 343.212 173.932,344.243 174.800,344.433 174.800 C 344.624 174.800,345.131 175.565,345.560 176.500 C 345.989 177.435,347.119 178.847,348.070 179.637 C 349.022 180.428,350.070 181.592,350.400 182.225 C 351.073 183.516,352.233 184.800,352.725 184.800 C 353.135 184.800,355.200 186.935,355.200 187.359 C 355.200 187.879,356.793 189.739,357.810 190.406 C 358.619 190.937,360.800 193.702,360.800 194.197 C 360.800 194.584,362.734 196.400,363.146 196.400 C 363.396 196.400,363.600 196.541,363.600 196.713 C 363.600 197.099,364.916 198.818,366.900 201.023 C 368.930 203.279,369.128 207.179,367.300 208.909 C 365.956 210.181,365.200 211.084,365.200 211.417 C 365.200 211.554,364.277 212.635,363.148 213.817 C 362.019 215.000,360.634 216.650,360.069 217.484 C 359.504 218.318,358.608 219.343,358.078 219.763 C 356.579 220.949,355.555 222.119,355.182 223.072 C 354.995 223.551,354.029 224.541,353.036 225.272 C 351.968 226.057,351.048 227.131,350.784 227.900 C 350.539 228.615,350.184 229.200,349.996 229.200 C 349.808 229.200,349.540 229.560,349.400 230.000 C 349.260 230.440,348.933 230.806,348.673 230.813 C 347.990 230.833,346.400 232.241,346.400 232.826 C 346.400 233.629,344.452 235.952,343.265 236.566 C 342.664 236.877,341.936 237.572,341.648 238.110 C 340.228 240.763,344.208 240.588,282.600 240.710 L 227.000 240.821 226.309 241.710 C 225.663 242.542,225.617 245.712,225.603 290.000 C 225.588 341.779,225.698 338.643,223.853 339.908 C 221.819 341.301,198.581 341.301,196.547 339.908 C 194.702 338.643,194.811 341.785,194.805 289.900 C 194.800 242.937,194.791 242.391,194.000 241.600 C 193.208 240.808,192.667 240.800,142.813 240.800 L 92.427 240.800 91.013 239.387 L 89.600 237.973 89.600 205.263 L 89.600 172.552 90.847 171.276 L 92.095 170.000 142.417 170.000 L 192.739 170.000 193.969 168.964 L 195.200 167.929 195.200 160.145 L 195.200 152.362 194.100 151.393 L 193.000 150.425 137.712 150.413 C 75.902 150.399,80.598 150.616,78.644 147.678 C 78.229 147.053,77.510 146.375,77.048 146.171 C 76.586 145.967,75.846 145.177,75.404 144.416 C 74.962 143.654,73.655 142.121,72.500 141.008 C 71.345 139.896,70.400 138.827,70.400 138.634 C 70.400 138.078,67.593 134.800,67.117 134.800 C 66.606 134.800,65.822 133.844,64.987 132.200 C 64.652 131.540,63.745 130.550,62.973 130.000 C 62.201 129.450,61.287 128.477,60.942 127.838 C 60.597 127.198,60.151 126.478,59.951 126.238 C 58.529 124.526,57.690 123.720,57.091 123.490 C 56.711 123.344,56.400 122.966,56.400 122.649 C 56.400 122.332,55.410 121.026,54.200 119.746 C 51.260 116.638,50.970 113.452,53.440 111.398 C 54.232 110.739,55.137 109.704,55.452 109.097 C 55.766 108.490,57.013 107.004,58.223 105.795 C 59.432 104.586,60.588 103.156,60.793 102.619 C 60.997 102.082,61.664 101.317,62.276 100.921 C 63.820 99.919,64.656 99.038,65.367 97.664 C 65.702 97.016,66.707 95.907,67.600 95.200 C 68.493 94.493,69.473 93.438,69.777 92.857 C 70.483 91.509,72.553 89.200,73.056 89.200 C 73.267 89.200,73.926 88.435,74.520 87.500 C 75.911 85.312,79.978 81.341,81.372 80.810 C 82.092 80.537,100.847 80.400,137.549 80.400 L 192.646 80.400 193.923 79.342 L 195.200 78.284 195.200 70.288 L 195.200 62.292 196.221 61.346 L 197.241 60.400 210.167 60.400 C 222.637 60.400,223.129 60.429,224.146 61.229 M101.436 106.031 L 100.400 107.261 100.400 115.231 C 100.400 125.922,98.666 124.800,115.184 124.800 C 131.710 124.800,130.000 125.917,130.000 115.121 L 130.000 107.193 128.857 105.996 L 127.713 104.800 115.092 104.800 L 102.471 104.800 101.436 106.031 M128.469 107.062 C 129.524 108.017,129.585 122.112,128.538 123.269 C 127.571 124.337,103.106 124.401,101.931 123.338 C 101.013 122.507,100.810 108.613,101.696 107.195 C 102.400 106.068,127.234 105.945,128.469 107.062 M43.012 129.106 C 43.238 129.268,43.399 129.773,43.370 130.230 C 43.321 130.984,43.502 131.047,45.358 130.926 C 46.596 130.845,47.873 131.023,48.600 131.378 C 49.260 131.700,50.475 132.069,51.300 132.200 C 52.125 132.330,52.800 132.592,52.800 132.781 C 52.800 133.338,56.210 136.686,57.048 136.952 C 57.470 137.086,58.156 137.827,58.571 138.599 C 59.322 139.993,61.562 142.000,62.368 142.000 C 62.600 142.000,63.038 142.585,63.341 143.300 C 63.882 144.573,67.045 148.000,67.679 148.000 C 67.856 148.000,68.000 148.258,68.000 148.572 C 68.000 149.305,72.538 154.054,74.491 155.364 C 76.765 156.889,79.811 157.675,84.000 157.819 C 86.090 157.890,88.103 157.960,88.473 157.974 C 89.430 158.011,89.893 159.762,89.636 162.369 C 89.616 162.572,88.964 162.948,88.187 163.204 C 86.533 163.750,83.308 165.502,82.980 166.032 C 82.855 166.234,82.358 166.406,81.876 166.414 C 80.645 166.435,78.998 167.951,78.455 169.565 C 77.916 171.169,78.129 171.654,78.813 170.376 C 79.424 169.235,81.240 167.629,81.938 167.613 C 82.466 167.600,83.193 167.277,86.000 165.805 C 88.826 164.323,90.663 164.265,139.641 164.128 C 195.031 163.974,189.088 164.503,189.283 159.704 C 189.468 155.158,195.640 155.622,134.600 155.601 C 73.787 155.580,76.364 155.730,74.647 152.129 C 74.298 151.398,73.748 150.800,73.425 150.800 C 72.773 150.800,70.800 148.983,70.800 148.382 C 70.800 148.172,70.620 148.000,70.400 148.000 C 70.180 148.000,70.000 147.706,70.000 147.346 C 70.000 146.586,68.376 144.973,67.251 144.616 C 66.826 144.481,66.167 143.702,65.789 142.885 C 64.940 141.053,63.681 139.624,62.521 139.175 C 62.037 138.989,61.322 138.333,60.931 137.718 C 60.539 137.103,59.990 136.456,59.710 136.280 C 59.429 136.104,59.200 135.773,59.200 135.544 C 59.200 135.138,57.626 133.640,57.171 133.613 C 57.045 133.606,55.978 132.700,54.800 131.600 C 52.475 129.429,52.744 129.494,46.100 129.483 C 44.945 129.481,44.000 129.326,44.000 129.140 C 44.000 128.953,43.685 128.803,43.300 128.806 C 42.894 128.810,42.773 128.936,43.012 129.106 M233.058 155.990 C 230.754 156.435,230.144 158.545,231.323 162.000 C 232.002 163.993,230.497 163.937,281.400 163.858 C 332.402 163.779,328.352 164.055,330.252 160.532 C 330.883 159.361,331.535 158.402,331.700 158.401 C 332.283 158.399,331.990 157.623,331.259 157.231 C 328.493 155.751,240.080 154.633,233.058 155.990 M291.600 196.058 C 290.126 197.282,289.800 211.929,291.206 213.717 L 292.058 214.800 305.048 214.800 L 318.038 214.800 319.019 213.742 C 319.987 212.697,320.000 212.588,320.000 205.214 L 320.000 197.744 318.864 196.472 L 317.729 195.200 305.164 195.213 C 293.041 195.226,292.565 195.256,291.600 196.058 M318.360 196.951 C 318.678 197.335,318.784 199.926,318.709 205.451 L 318.600 213.400 305.200 213.400 L 291.800 213.400 291.686 205.800 C 291.624 201.620,291.672 197.795,291.794 197.300 L 292.015 196.400 304.959 196.400 C 315.469 196.400,317.988 196.504,318.360 196.951 M376.641 219.092 C 376.481 219.253,375.236 219.426,373.875 219.477 C 367.511 219.714,367.424 219.744,364.576 222.700 C 364.099 223.195,363.549 223.606,363.354 223.613 C 362.844 223.631,360.800 225.492,360.800 225.938 C 360.800 226.145,360.527 226.419,360.194 226.547 C 359.861 226.675,359.414 227.237,359.201 227.797 C 358.988 228.357,358.390 228.976,357.872 229.173 C 356.838 229.566,354.804 231.784,354.793 232.531 C 354.784 233.119,353.344 234.435,351.907 235.170 C 351.305 235.477,350.699 236.104,350.560 236.564 C 350.129 237.984,347.839 240.775,347.094 240.788 C 346.694 240.795,346.111 241.378,345.752 242.131 C 344.040 245.721,345.549 245.631,285.400 245.721 C 241.764 245.786,232.434 245.894,231.646 246.343 C 230.027 247.264,230.600 251.770,232.770 255.200 C 233.675 256.630,234.667 258.342,234.973 259.004 C 235.914 261.035,237.438 262.407,238.681 262.340 L 239.800 262.280 238.680 262.112 C 237.885 261.992,237.399 261.573,237.006 260.671 C 236.702 259.972,235.792 257.960,234.986 256.200 C 233.354 252.641,233.245 250.176,234.656 248.768 C 235.372 248.053,237.368 248.020,287.800 247.906 C 336.797 247.795,340.337 247.741,342.309 247.076 C 345.658 245.945,349.809 242.641,351.703 239.600 C 352.182 238.830,353.003 237.858,353.527 237.440 C 355.095 236.188,356.362 234.687,357.019 233.304 C 357.359 232.587,357.854 231.994,358.119 231.986 C 358.904 231.962,360.625 230.318,361.734 228.532 C 362.304 227.614,363.182 226.738,363.685 226.584 C 364.188 226.430,365.410 225.440,366.400 224.383 C 367.418 223.297,368.722 222.340,369.400 222.183 C 370.060 222.030,371.002 221.654,371.492 221.348 C 372.015 221.022,373.176 220.836,374.292 220.899 C 376.173 221.006,377.492 220.396,377.023 219.637 C 376.898 219.434,377.021 219.177,377.298 219.066 C 377.575 218.954,377.606 218.849,377.367 218.832 C 377.128 218.814,376.802 218.931,376.641 219.092 M96.357 245.776 C 96.260 245.873,94.697 246.138,92.884 246.366 C 91.070 246.593,89.184 246.998,88.693 247.265 C 87.780 247.762,87.534 247.818,85.338 248.038 C 84.458 248.126,83.875 248.503,83.415 249.282 C 82.736 250.433,82.000 250.766,82.000 249.924 C 82.000 249.661,81.755 249.782,81.455 250.192 C 80.860 251.007,80.763 250.944,79.020 248.600 C 78.693 248.160,78.420 248.012,78.413 248.271 C 78.406 248.531,78.639 248.982,78.932 249.275 C 79.225 249.568,79.395 250.014,79.311 250.266 C 79.227 250.519,79.568 251.012,80.068 251.363 C 81.137 252.111,81.639 252.177,81.500 251.550 C 81.445 251.303,81.650 251.009,81.956 250.898 C 82.296 250.774,82.403 250.871,82.232 251.148 C 81.855 251.758,82.517 251.723,83.140 251.100 C 83.414 250.825,84.665 250.396,85.920 250.147 C 87.174 249.898,89.550 249.318,91.200 248.857 C 94.018 248.070,186.087 247.421,186.849 248.183 C 187.243 248.576,186.450 254.797,185.870 255.866 C 184.457 258.471,183.477 260.810,183.704 261.037 C 184.067 261.400,184.800 260.835,185.230 259.861 C 185.439 259.388,185.993 258.370,186.461 257.600 C 188.814 253.730,189.169 252.747,189.283 249.785 C 189.460 245.166,194.674 245.627,142.167 245.613 C 117.068 245.606,96.454 245.679,96.357 245.776 M198.412 346.248 C 196.549 346.568,194.525 347.078,193.916 347.382 C 193.307 347.686,192.245 348.058,191.556 348.210 C 190.213 348.505,188.000 350.361,188.000 351.192 C 188.000 351.540,188.156 351.575,188.500 351.304 C 188.775 351.087,189.794 350.788,190.763 350.640 C 191.733 350.492,192.993 350.116,193.563 349.806 C 199.159 346.759,225.833 347.493,231.600 350.852 C 233.133 351.745,234.186 352.043,234.326 351.622 C 234.404 351.387,234.609 351.282,234.781 351.388 C 234.953 351.494,235.415 351.225,235.809 350.791 C 236.263 350.288,236.345 350.000,236.033 350.000 C 235.705 350.000,235.750 349.793,236.171 349.371 C 236.517 349.026,236.800 348.533,236.800 348.276 C 236.800 348.020,236.321 348.482,235.736 349.305 C 234.643 350.841,234.223 351.084,233.811 350.417 C 233.681 350.207,233.328 350.130,233.026 350.245 C 232.701 350.370,232.183 349.956,231.753 349.228 C 231.058 348.052,230.646 347.911,228.196 348.008 C 228.084 348.013,227.409 347.715,226.696 347.346 C 223.779 345.838,205.041 345.110,198.412 346.248 " stroke="none" fill="#b4b4b4" fill-rule="evenodd"></path><path id="path2" d="M197.100 62.032 C 196.471 62.399,196.400 63.240,196.400 70.387 C 196.400 79.497,196.187 80.297,193.544 81.122 C 192.388 81.483,178.569 81.600,137.180 81.600 C 81.933 81.600,80.800 81.628,80.800 83.005 C 80.800 83.322,79.873 84.314,78.739 85.210 C 77.606 86.106,76.279 87.595,75.790 88.520 C 75.245 89.549,74.374 90.456,73.541 90.860 C 72.652 91.292,71.871 92.142,71.284 93.317 C 70.354 95.180,69.714 95.872,68.257 96.593 C 67.786 96.826,66.950 97.912,66.400 99.007 C 65.679 100.441,64.953 101.227,63.800 101.823 C 62.825 102.327,62.152 102.980,62.076 103.496 C 62.008 103.961,61.693 104.557,61.376 104.820 C 61.059 105.083,60.795 105.501,60.789 105.749 C 60.783 105.997,60.175 106.647,59.439 107.193 C 57.039 108.974,55.308 111.990,54.992 114.941 C 54.678 117.871,55.193 118.788,59.711 123.340 C 60.794 124.431,61.740 125.801,61.874 126.471 C 62.016 127.178,62.460 127.795,62.965 127.987 C 64.173 128.446,66.400 130.819,66.400 131.647 C 66.400 132.029,66.895 132.716,67.500 133.174 C 68.105 133.631,69.077 134.370,69.660 134.816 C 70.243 135.262,70.837 136.092,70.980 136.661 C 71.269 137.812,72.113 138.784,73.369 139.408 C 73.826 139.636,74.748 140.658,75.417 141.679 C 76.086 142.701,77.496 144.406,78.551 145.468 C 79.605 146.531,80.854 147.805,81.325 148.300 L 82.183 149.200 137.803 149.200 C 187.556 149.200,193.516 149.266,194.313 149.824 C 196.174 151.127,196.400 152.252,196.400 160.194 C 196.400 167.962,196.231 168.818,194.406 170.287 C 193.937 170.664,182.353 170.779,143.200 170.794 L 92.600 170.814 91.700 171.763 L 90.800 172.713 90.800 205.294 C 90.800 236.351,90.834 237.907,91.531 238.538 C 92.204 239.147,96.327 239.200,142.670 239.200 L 193.077 239.200 194.604 240.683 L 196.131 242.166 195.868 289.940 L 195.606 337.714 196.623 338.657 L 197.641 339.600 210.167 339.600 C 222.324 339.600,222.724 339.575,223.770 338.752 L 224.849 337.904 224.803 290.252 C 224.754 238.678,224.660 241.386,226.547 240.092 L 227.850 239.200 283.141 239.200 L 338.432 239.200 339.616 238.325 C 340.267 237.843,340.808 237.258,340.818 237.025 C 340.829 236.791,341.294 236.240,341.853 235.800 C 343.495 234.507,345.196 232.637,345.198 232.124 C 345.199 231.862,346.100 230.889,347.200 229.961 C 348.300 229.034,349.200 228.089,349.200 227.862 C 349.200 227.162,350.971 224.806,351.500 224.803 C 351.775 224.801,352.000 224.632,352.000 224.427 C 352.000 224.222,352.315 223.954,352.700 223.831 C 353.085 223.708,353.841 222.776,354.380 221.759 C 354.943 220.694,356.002 219.504,356.875 218.953 C 357.750 218.400,358.641 217.397,358.982 216.580 C 359.308 215.802,360.318 214.498,361.227 213.682 C 362.137 212.867,363.120 211.750,363.412 211.200 C 363.704 210.650,364.496 209.604,365.171 208.875 C 367.060 206.839,366.973 203.195,364.987 201.219 C 364.224 200.460,363.600 199.682,363.600 199.490 C 363.600 199.298,362.712 198.300,361.628 197.271 C 360.543 196.242,359.265 194.635,358.787 193.700 C 358.310 192.765,357.754 192.000,357.553 192.000 C 356.914 192.000,354.300 189.059,353.734 187.703 C 353.434 186.986,352.940 186.400,352.635 186.400 C 351.911 186.400,349.200 183.685,349.200 182.960 C 349.200 182.355,347.810 180.800,347.270 180.800 C 346.796 180.800,345.200 179.031,345.200 178.507 C 345.200 177.923,339.677 172.283,338.400 171.563 C 337.558 171.089,328.613 170.968,281.843 170.800 L 226.286 170.600 225.443 169.472 C 224.327 167.979,223.779 153.334,224.774 151.600 C 226.258 149.015,221.790 149.219,277.300 149.209 L 327.600 149.200 328.462 148.338 L 329.324 147.476 329.098 115.122 C 328.929 90.926,328.751 82.623,328.394 82.193 C 327.984 81.699,320.767 81.602,277.458 81.509 C 249.706 81.449,226.712 81.256,226.361 81.081 C 224.232 80.017,223.936 78.810,223.704 70.264 C 223.562 65.049,223.328 62.096,223.042 61.906 C 222.344 61.442,197.909 61.561,197.100 62.032 M129.800 104.963 L 131.000 105.923 131.125 114.061 C 131.330 127.429,132.665 126.400,115.129 126.400 C 102.300 126.400,102.091 126.387,100.954 125.514 C 99.181 124.152,99.213 124.343,99.206 114.936 L 99.200 106.071 100.431 105.036 L 101.661 104.000 115.131 104.002 L 128.600 104.004 129.800 104.963 M98.000 117.386 C 98.000 126.256,98.043 126.795,98.774 127.186 C 100.176 127.937,131.007 127.736,131.771 126.971 C 132.306 126.437,132.400 124.976,132.400 117.171 L 132.400 108.000 230.200 108.000 L 328.000 108.000 328.000 128.000 L 328.000 148.000 276.300 148.006 C 247.865 148.009,224.381 148.151,224.114 148.321 C 222.534 149.325,222.579 169.409,224.165 171.162 L 224.924 172.000 281.419 172.000 L 337.913 172.000 338.179 173.100 C 338.782 175.597,339.305 176.256,341.101 176.787 C 342.072 177.073,342.927 177.509,343.000 177.754 C 343.073 177.999,343.373 179.003,343.667 179.984 C 344.161 181.636,344.333 181.800,346.000 182.203 C 347.718 182.618,347.810 182.713,348.025 184.307 C 348.174 185.406,348.584 186.248,349.225 186.772 C 352.192 189.192,352.800 189.781,352.800 190.234 C 352.800 190.508,353.340 191.242,354.000 191.865 C 354.660 192.488,355.200 193.229,355.200 193.512 C 355.200 193.795,355.830 194.399,356.600 194.853 C 357.370 195.307,358.000 195.909,358.000 196.191 C 358.000 196.472,358.270 196.926,358.600 197.200 C 358.930 197.474,359.200 197.979,359.200 198.323 C 359.200 199.069,360.743 200.800,361.409 200.800 C 361.667 200.800,362.265 201.136,362.739 201.547 C 364.237 202.846,363.827 209.200,362.244 209.200 C 361.420 209.200,359.602 211.074,359.140 212.400 C 358.910 213.060,358.559 213.600,358.361 213.600 C 358.162 213.600,358.000 213.795,358.000 214.033 C 358.000 214.272,357.360 215.127,356.577 215.933 C 355.795 216.740,354.850 217.725,354.477 218.121 C 354.105 218.518,353.438 219.598,352.995 220.521 C 352.480 221.596,351.666 222.482,350.732 222.983 C 349.093 223.864,348.000 225.436,348.000 226.912 C 348.000 227.699,347.745 227.951,346.745 228.151 C 345.137 228.473,343.600 230.129,343.600 231.541 C 343.600 232.842,342.953 233.595,341.820 233.613 C 340.621 233.633,339.425 234.802,338.969 236.400 L 338.570 237.800 282.785 238.003 C 223.716 238.217,224.977 238.174,223.992 240.016 C 223.742 240.481,223.600 258.405,223.600 289.331 C 223.600 333.264,223.539 337.938,222.967 338.157 C 222.132 338.478,198.254 338.472,197.417 338.151 C 196.823 337.923,196.772 333.822,196.817 289.851 C 196.844 263.423,196.740 241.299,196.586 240.686 C 195.924 238.053,199.211 238.211,142.898 238.094 L 91.995 237.988 92.098 205.094 L 92.200 172.200 144.200 171.996 C 172.800 171.884,196.231 171.749,196.269 171.696 C 197.533 169.933,197.851 150.192,196.638 148.846 L 195.876 148.000 139.181 148.000 C 87.851 148.000,82.463 147.940,82.243 147.367 C 82.109 147.019,82.000 146.110,82.000 145.347 C 82.000 143.894,80.460 142.800,78.413 142.800 C 77.753 142.800,77.600 142.541,77.600 141.419 C 77.600 139.911,76.882 138.000,76.315 138.000 C 76.119 138.000,75.766 137.449,75.531 136.775 C 75.283 136.063,74.454 135.139,73.552 134.570 C 72.698 134.031,72.000 133.326,72.000 133.003 C 72.000 132.680,71.728 131.735,71.395 130.903 C 70.830 129.492,70.231 129.039,67.900 128.259 C 67.515 128.130,67.200 127.654,67.200 127.200 C 67.200 125.036,66.144 123.671,64.251 123.387 C 62.444 123.116,62.435 123.107,62.198 121.257 C 61.850 118.548,61.565 118.216,59.459 118.078 L 57.600 117.956 57.600 115.178 L 57.600 112.400 59.226 112.400 C 61.761 112.400,62.400 111.874,62.400 109.786 L 62.400 108.000 80.200 108.000 L 98.000 108.000 98.000 117.386 M43.563 131.724 C 43.742 131.903,44.769 131.990,45.844 131.918 L 47.800 131.787 45.519 131.594 C 44.264 131.487,43.384 131.546,43.563 131.724 M48.324 133.400 C 48.414 134.170,48.658 134.800,48.867 134.800 C 49.076 134.800,49.142 134.971,49.012 135.180 C 48.686 135.708,50.111 136.400,51.525 136.400 C 52.909 136.400,53.296 136.827,53.932 139.052 C 54.398 140.685,55.248 141.336,57.357 141.678 C 58.246 141.821,58.599 142.425,59.061 144.587 C 59.367 146.018,59.557 146.210,61.000 146.549 C 62.892 146.994,63.570 147.751,63.587 149.438 C 63.603 150.982,64.583 151.898,66.400 152.069 C 67.681 152.189,67.810 152.319,67.920 153.600 C 68.099 155.691,69.146 156.815,71.168 157.086 C 72.656 157.286,72.967 157.501,73.456 158.672 C 74.135 160.298,74.785 160.584,79.191 161.197 C 84.560 161.944,85.066 162.547,81.580 164.047 C 80.325 164.587,79.313 165.369,78.803 166.195 C 77.805 167.810,77.777 168.499,78.757 167.325 C 79.430 166.519,82.606 164.530,84.661 163.628 C 87.339 162.452,84.808 160.429,79.665 159.635 C 77.456 159.294,76.369 158.893,75.265 158.013 C 74.459 157.370,72.810 156.330,71.600 155.701 C 70.039 154.890,69.343 154.273,69.200 153.574 C 68.896 152.080,67.892 150.895,66.798 150.740 C 66.112 150.642,65.511 150.045,64.808 148.762 C 63.473 146.329,62.822 145.528,61.482 144.672 C 60.867 144.279,60.211 143.563,60.023 143.079 C 59.836 142.596,58.930 141.570,58.012 140.800 C 57.093 140.030,56.183 139.220,55.991 139.000 C 55.798 138.780,54.978 137.833,54.169 136.895 C 53.360 135.957,52.226 135.077,51.649 134.940 C 50.292 134.616,49.600 134.052,49.168 132.916 C 48.641 131.531,48.139 131.818,48.324 133.400 M74.400 171.176 C 74.400 171.383,74.580 171.664,74.800 171.800 C 75.020 171.936,75.200 171.879,75.200 171.673 C 75.200 171.466,75.743 171.344,76.406 171.401 C 77.070 171.457,77.710 171.345,77.830 171.152 C 77.949 170.958,77.227 170.800,76.224 170.800 C 75.221 170.800,74.400 170.969,74.400 171.176 M290.385 193.469 C 288.400 193.797,288.211 194.673,288.071 204.167 C 287.867 218.065,286.720 217.200,305.346 217.200 C 318.356 217.200,319.970 217.029,321.300 215.511 C 322.478 214.166,322.353 195.243,321.159 194.162 C 320.354 193.433,294.172 192.844,290.385 193.469 M319.569 195.436 L 320.800 196.471 320.800 204.959 C 320.800 216.898,322.092 216.000,304.924 216.000 L 292.027 216.000 290.613 214.587 L 289.200 213.173 289.213 205.087 C 289.231 193.516,287.788 194.474,305.269 194.432 L 318.339 194.400 319.569 195.436 M374.600 221.600 L 372.600 221.874 374.400 221.931 C 375.390 221.962,376.470 221.813,376.800 221.600 C 377.130 221.387,377.220 221.238,377.000 221.269 C 376.780 221.300,375.700 221.449,374.600 221.600 M371.335 222.500 C 371.163 222.775,370.984 223.252,370.938 223.560 C 370.836 224.233,370.149 224.717,368.800 225.065 C 367.756 225.335,361.038 231.790,359.813 233.700 C 359.425 234.305,358.924 234.800,358.700 234.800 C 358.089 234.800,356.703 236.434,355.800 238.219 C 354.895 240.008,354.105 240.769,353.133 240.787 C 352.420 240.801,350.800 243.096,350.800 244.092 C 350.800 244.420,349.945 245.119,348.900 245.644 C 347.855 246.170,346.232 247.199,345.294 247.932 L 343.587 249.264 290.995 249.217 C 235.578 249.168,237.492 249.108,235.867 250.962 C 234.336 252.709,237.144 262.342,239.058 261.905 C 239.699 261.759,239.659 261.668,238.764 261.233 C 237.087 260.419,235.745 252.987,237.020 251.578 C 237.711 250.815,238.738 250.800,291.229 250.800 C 349.626 250.800,345.706 250.944,346.825 248.751 C 347.417 247.592,347.862 247.200,348.589 247.200 C 350.194 247.200,351.603 246.342,351.824 245.231 C 352.376 242.458,352.561 242.207,354.198 242.000 C 355.844 241.792,356.767 240.731,356.807 239.000 C 356.836 237.746,357.714 236.890,359.272 236.598 C 360.786 236.314,361.600 235.206,361.600 233.430 C 361.600 232.261,362.164 231.795,364.259 231.235 C 365.951 230.782,366.400 230.236,366.400 228.629 C 366.400 227.379,367.612 226.400,369.160 226.400 C 370.800 226.400,371.641 225.563,372.006 223.569 C 372.287 222.033,371.956 221.506,371.335 222.500 M96.400 249.472 C 95.850 249.561,93.510 249.980,91.200 250.402 C 88.890 250.824,86.126 251.256,85.057 251.361 C 83.988 251.467,82.998 251.677,82.857 251.828 C 82.546 252.162,88.939 251.742,92.000 251.228 C 93.247 251.019,113.439 250.846,138.611 250.829 L 183.022 250.800 183.733 251.630 C 184.363 252.366,184.390 252.702,183.970 254.576 C 183.361 257.299,183.649 258.147,184.544 256.262 C 185.762 253.695,185.591 251.732,184.032 250.370 L 182.692 249.200 140.046 249.254 C 116.591 249.284,96.950 249.382,96.400 249.472 M183.254 259.200 C 183.219 259.750,183.096 260.650,182.983 261.200 L 182.777 262.200 183.207 261.215 C 183.443 260.674,183.565 259.774,183.478 259.215 L 183.320 258.200 183.254 259.200 M197.600 350.202 C 195.070 350.739,192.210 351.268,191.245 351.377 C 190.280 351.487,189.395 351.672,189.278 351.788 C 188.860 352.207,192.668 351.987,196.000 351.400 C 199.921 350.709,219.864 350.593,223.600 351.239 C 226.543 351.747,232.663 352.163,232.352 351.833 C 232.215 351.688,231.225 351.473,230.152 351.355 C 229.078 351.237,226.310 350.764,224.000 350.305 C 217.192 348.950,203.744 348.897,197.600 350.202 " stroke="none" fill="#646464" fill-rule="evenodd"></path><path id="path3" d="M196.221 61.346 L 195.200 62.292 195.200 70.288 L 195.200 78.284 193.923 79.342 L 192.646 80.400 137.549 80.400 C 100.847 80.400,82.092 80.537,81.372 80.810 C 79.978 81.341,75.911 85.312,74.520 87.500 C 73.926 88.435,73.267 89.200,73.056 89.200 C 72.553 89.200,70.483 91.509,69.777 92.857 C 69.473 93.438,68.493 94.493,67.600 95.200 C 66.707 95.907,65.702 97.016,65.367 97.664 C 64.656 99.038,63.820 99.919,62.276 100.921 C 61.664 101.317,60.997 102.082,60.793 102.619 C 60.588 103.156,59.432 104.586,58.223 105.795 C 57.013 107.004,55.766 108.490,55.452 109.097 C 55.137 109.704,54.232 110.739,53.440 111.398 C 50.970 113.452,51.260 116.638,54.200 119.746 C 55.410 121.026,56.400 122.332,56.400 122.649 C 56.400 122.966,56.711 123.344,57.091 123.490 C 57.690 123.720,58.529 124.526,59.951 126.238 C 60.151 126.478,60.597 127.198,60.942 127.838 C 61.287 128.477,62.201 129.450,62.973 130.000 C 63.745 130.550,64.652 131.540,64.987 132.200 C 65.822 133.844,66.606 134.800,67.117 134.800 C 67.593 134.800,70.400 138.078,70.400 138.634 C 70.400 138.827,71.345 139.896,72.500 141.008 C 73.655 142.121,74.962 143.654,75.404 144.416 C 75.846 145.177,76.586 145.967,77.048 146.171 C 77.510 146.375,78.229 147.053,78.644 147.678 C 80.598 150.616,75.902 150.399,137.712 150.413 L 193.000 150.425 194.100 151.393 L 195.200 152.362 195.200 160.145 L 195.200 167.929 193.969 168.964 L 192.739 170.000 142.417 170.000 L 92.095 170.000 90.847 171.276 L 89.600 172.552 89.600 205.263 L 89.600 237.973 91.013 239.387 L 92.427 240.800 142.813 240.800 C 192.667 240.800,193.208 240.808,194.000 241.600 C 194.791 242.391,194.800 242.937,194.805 289.900 C 194.811 341.785,194.702 338.643,196.547 339.908 C 198.581 341.301,221.819 341.301,223.853 339.908 C 225.698 338.643,225.588 341.779,225.603 290.000 C 225.617 245.712,225.663 242.542,226.309 241.710 L 227.000 240.821 282.600 240.710 C 344.208 240.588,340.228 240.763,341.648 238.110 C 341.936 237.572,342.664 236.877,343.265 236.566 C 344.452 235.952,346.400 233.629,346.400 232.826 C 346.400 232.241,347.990 230.833,348.673 230.813 C 348.933 230.806,349.260 230.440,349.400 230.000 C 349.540 229.560,349.808 229.200,349.996 229.200 C 350.184 229.200,350.539 228.615,350.784 227.900 C 351.048 227.131,351.968 226.057,353.036 225.272 C 354.029 224.541,354.995 223.551,355.182 223.072 C 355.555 222.119,356.579 220.949,358.078 219.763 C 358.608 219.343,359.504 218.318,360.069 217.484 C 360.634 216.650,362.019 215.000,363.148 213.817 C 364.277 212.635,365.200 211.554,365.200 211.417 C 365.200 211.084,365.956 210.181,367.300 208.909 C 369.128 207.179,368.930 203.279,366.900 201.023 C 364.916 198.818,363.600 197.099,363.600 196.713 C 363.600 196.541,363.396 196.400,363.146 196.400 C 362.734 196.400,360.800 194.584,360.800 194.197 C 360.800 193.702,358.619 190.937,357.810 190.406 C 356.793 189.739,355.200 187.879,355.200 187.359 C 355.200 186.935,353.135 184.800,352.725 184.800 C 352.233 184.800,351.073 183.516,350.400 182.225 C 350.070 181.592,349.022 180.428,348.070 179.637 C 347.119 178.847,345.989 177.435,345.560 176.500 C 345.131 175.565,344.624 174.800,344.433 174.800 C 344.243 174.800,343.212 173.932,342.143 172.871 C 339.040 169.792,343.290 170.001,283.640 169.990 C 229.778 169.981,227.212 169.916,226.206 168.540 C 225.434 167.485,225.144 152.789,225.882 152.156 C 226.167 151.912,226.400 151.528,226.400 151.303 C 226.400 150.461,229.307 150.411,278.022 150.405 L 327.843 150.400 329.187 149.013 L 330.532 147.626 330.274 114.916 C 330.103 93.257,329.878 82.159,329.608 82.069 C 329.384 81.995,329.200 81.678,329.200 81.367 C 329.200 81.055,329.155 80.760,329.100 80.711 C 329.045 80.662,306.197 80.527,278.326 80.411 L 227.652 80.200 226.426 79.025 L 225.200 77.850 225.200 69.954 L 225.200 62.058 224.146 61.229 C 223.129 60.429,222.637 60.400,210.167 60.400 L 197.241 60.400 196.221 61.346 M223.042 61.906 C 223.328 62.096,223.562 65.049,223.704 70.264 C 223.936 78.810,224.232 80.017,226.361 81.081 C 226.712 81.256,249.706 81.449,277.458 81.509 C 320.767 81.602,327.984 81.699,328.394 82.193 C 328.751 82.623,328.929 90.926,329.098 115.122 L 329.324 147.476 328.462 148.338 L 327.600 149.200 277.300 149.209 C 221.790 149.219,226.258 149.015,224.774 151.600 C 223.779 153.334,224.327 167.979,225.443 169.472 L 226.286 170.600 281.843 170.800 C 328.613 170.968,337.558 171.089,338.400 171.563 C 339.677 172.283,345.200 177.923,345.200 178.507 C 345.200 179.031,346.796 180.800,347.270 180.800 C 347.810 180.800,349.200 182.355,349.200 182.960 C 349.200 183.685,351.911 186.400,352.635 186.400 C 352.940 186.400,353.434 186.986,353.734 187.703 C 354.300 189.059,356.914 192.000,357.553 192.000 C 357.754 192.000,358.310 192.765,358.787 193.700 C 359.265 194.635,360.543 196.242,361.628 197.271 C 362.712 198.300,363.600 199.298,363.600 199.490 C 363.600 199.682,364.224 200.460,364.987 201.219 C 366.973 203.195,367.060 206.839,365.171 208.875 C 364.496 209.604,363.704 210.650,363.412 211.200 C 363.120 211.750,362.137 212.867,361.227 213.682 C 360.318 214.498,359.308 215.802,358.982 216.580 C 358.641 217.397,357.750 218.400,356.875 218.953 C 356.002 219.504,354.943 220.694,354.380 221.759 C 353.841 222.776,353.085 223.708,352.700 223.831 C 352.315 223.954,352.000 224.222,352.000 224.427 C 352.000 224.632,351.775 224.801,351.500 224.803 C 350.971 224.806,349.200 227.162,349.200 227.862 C 349.200 228.089,348.300 229.034,347.200 229.961 C 346.100 230.889,345.199 231.862,345.198 232.124 C 345.196 232.637,343.495 234.507,341.853 235.800 C 341.294 236.240,340.829 236.791,340.818 237.025 C 340.808 237.258,340.267 237.843,339.616 238.325 L 338.432 239.200 283.141 239.200 L 227.850 239.200 226.547 240.092 C 224.660 241.386,224.754 238.678,224.803 290.252 L 224.849 337.904 223.770 338.752 C 222.724 339.575,222.324 339.600,210.167 339.600 L 197.641 339.600 196.623 338.657 L 195.606 337.714 195.868 289.940 L 196.131 242.166 194.604 240.683 L 193.077 239.200 142.670 239.200 C 96.327 239.200,92.204 239.147,91.531 238.538 C 90.834 237.907,90.800 236.351,90.800 205.294 L 90.800 172.713 91.700 171.763 L 92.600 170.814 143.200 170.794 C 182.353 170.779,193.937 170.664,194.406 170.287 C 197.483 167.811,197.412 151.994,194.313 149.824 C 193.516 149.266,187.556 149.200,137.803 149.200 L 82.183 149.200 81.325 148.300 C 80.854 147.805,79.605 146.531,78.551 145.468 C 77.496 144.406,76.086 142.701,75.417 141.679 C 74.748 140.658,73.826 139.636,73.369 139.408 C 72.113 138.784,71.269 137.812,70.980 136.661 C 70.837 136.092,70.243 135.262,69.660 134.816 C 69.077 134.370,68.105 133.631,67.500 133.174 C 66.895 132.716,66.400 132.029,66.400 131.647 C 66.400 130.819,64.173 128.446,62.965 127.987 C 62.460 127.795,62.016 127.178,61.874 126.471 C 61.740 125.801,60.794 124.431,59.711 123.340 C 55.193 118.788,54.678 117.871,54.992 114.941 C 55.308 111.990,57.039 108.974,59.439 107.193 C 60.175 106.647,60.783 105.997,60.789 105.749 C 60.795 105.501,61.059 105.083,61.376 104.820 C 61.693 104.557,62.008 103.961,62.076 103.496 C 62.152 102.980,62.825 102.327,63.800 101.823 C 64.953 101.227,65.679 100.441,66.400 99.007 C 66.950 97.912,67.786 96.826,68.257 96.593 C 69.714 95.872,70.354 95.180,71.284 93.317 C 71.871 92.142,72.652 91.292,73.541 90.860 C 74.374 90.456,75.245 89.549,75.790 88.520 C 76.279 87.595,77.606 86.106,78.739 85.210 C 79.873 84.314,80.800 83.322,80.800 83.005 C 80.800 81.628,81.933 81.600,137.180 81.600 C 178.569 81.600,192.388 81.483,193.544 81.122 C 196.187 80.297,196.400 79.497,196.400 70.387 C 196.400 63.240,196.471 62.399,197.100 62.032 C 197.909 61.561,222.344 61.442,223.042 61.906 M100.431 105.036 L 99.200 106.071 99.206 114.936 C 99.213 124.343,99.181 124.152,100.954 125.514 C 102.091 126.387,102.300 126.400,115.129 126.400 C 132.665 126.400,131.330 127.429,131.125 114.061 L 131.000 105.923 129.800 104.963 L 128.600 104.004 115.131 104.002 L 101.661 104.000 100.431 105.036 M128.857 105.996 L 130.000 107.193 130.000 115.121 C 130.000 125.917,131.710 124.800,115.184 124.800 C 98.666 124.800,100.400 125.922,100.400 115.231 L 100.400 107.261 101.436 106.031 L 102.471 104.800 115.092 104.800 L 127.713 104.800 128.857 105.996 M42.800 129.940 C 42.800 130.910,43.940 131.600,45.545 131.600 C 47.537 131.600,49.200 132.204,49.200 132.928 C 49.200 133.673,50.375 134.639,51.649 134.941 C 52.226 135.078,53.360 135.957,54.169 136.895 C 54.978 137.833,55.798 138.780,55.991 139.000 C 56.183 139.220,57.093 140.030,58.012 140.800 C 58.930 141.570,59.836 142.596,60.023 143.079 C 60.211 143.563,60.867 144.279,61.482 144.672 C 62.822 145.528,63.473 146.329,64.808 148.762 C 65.511 150.045,66.112 150.642,66.798 150.740 C 67.892 150.895,68.896 152.080,69.200 153.574 C 69.343 154.273,70.039 154.890,71.600 155.701 C 72.810 156.330,74.459 157.370,75.265 158.013 C 76.369 158.893,77.456 159.294,79.665 159.635 C 84.808 160.429,87.339 162.452,84.661 163.628 C 80.306 165.540,78.017 167.537,78.044 169.400 L 78.061 170.600 78.530 169.332 C 79.077 167.857,80.771 166.400,81.939 166.400 C 82.387 166.400,82.855 166.234,82.980 166.032 C 83.308 165.502,86.533 163.750,88.187 163.204 C 88.964 162.948,89.616 162.572,89.636 162.369 C 89.893 159.762,89.430 158.011,88.473 157.974 C 88.103 157.960,86.090 157.890,84.000 157.819 C 79.811 157.675,76.765 156.889,74.491 155.364 C 72.538 154.054,68.000 149.305,68.000 148.572 C 68.000 148.258,67.856 148.000,67.679 148.000 C 67.045 148.000,63.882 144.573,63.341 143.300 C 63.038 142.585,62.600 142.000,62.368 142.000 C 61.562 142.000,59.322 139.993,58.571 138.599 C 58.156 137.827,57.470 137.086,57.048 136.952 C 56.210 136.686,52.800 133.338,52.800 132.781 C 52.800 132.592,52.125 132.330,51.300 132.200 C 50.475 132.069,49.260 131.698,48.600 131.373 C 47.914 131.036,46.660 130.843,45.673 130.921 C 44.291 131.031,43.832 130.896,43.373 130.240 C 43.058 129.790,42.800 129.655,42.800 129.940 M291.633 194.687 C 289.441 195.553,289.226 196.478,289.213 205.087 L 289.200 213.173 290.613 214.587 L 292.027 216.000 304.924 216.000 C 322.092 216.000,320.800 216.898,320.800 204.959 L 320.800 196.471 319.569 195.436 L 318.339 194.400 305.269 194.432 C 298.081 194.449,291.945 194.564,291.633 194.687 M318.864 196.472 L 320.000 197.744 320.000 205.214 C 320.000 212.588,319.987 212.697,319.019 213.742 L 318.038 214.800 305.048 214.800 L 292.058 214.800 291.206 213.717 C 290.393 212.683,290.360 212.285,290.477 204.762 C 290.642 194.196,289.051 195.230,305.164 195.213 L 317.729 195.200 318.864 196.472 M376.866 220.309 C 376.451 220.884,375.922 221.010,374.381 220.903 C 373.162 220.818,372.079 220.981,371.511 221.336 C 371.010 221.649,370.060 222.030,369.400 222.183 C 368.722 222.340,367.418 223.297,366.400 224.383 C 365.410 225.440,364.188 226.430,363.685 226.584 C 363.182 226.738,362.304 227.614,361.734 228.532 C 360.625 230.318,358.904 231.962,358.119 231.986 C 357.854 231.994,357.359 232.587,357.019 233.304 C 356.362 234.687,355.095 236.188,353.527 237.440 C 353.003 237.858,352.182 238.830,351.703 239.600 C 349.809 242.641,345.658 245.945,342.309 247.076 C 340.337 247.741,336.797 247.795,287.800 247.906 C 237.368 248.020,235.372 248.053,234.656 248.768 C 233.270 250.151,233.356 252.648,234.906 256.000 C 235.668 257.650,236.520 259.589,236.798 260.309 C 237.076 261.028,237.462 261.715,237.655 261.834 C 237.848 261.953,237.838 261.634,237.632 261.125 C 235.499 255.850,234.864 252.106,235.900 250.924 C 237.487 249.114,235.728 249.168,290.995 249.217 L 343.587 249.264 345.294 247.932 C 346.232 247.199,347.855 246.170,348.900 245.644 C 349.945 245.119,350.800 244.420,350.800 244.092 C 350.800 243.096,352.420 240.801,353.133 240.787 C 354.105 240.769,354.895 240.008,355.800 238.219 C 356.703 236.434,358.089 234.800,358.700 234.800 C 358.924 234.800,359.425 234.305,359.813 233.700 C 361.038 231.790,367.756 225.335,368.800 225.065 C 370.244 224.692,370.838 224.223,370.962 223.360 C 371.107 222.354,372.625 221.616,374.600 221.593 C 376.274 221.574,377.787 220.761,377.538 220.014 C 377.456 219.767,377.164 219.895,376.866 220.309 M91.000 248.884 C 89.460 249.327,87.191 249.894,85.958 250.145 C 84.725 250.395,83.443 250.828,83.109 251.107 C 82.774 251.386,82.180 251.490,81.785 251.339 C 81.270 251.141,81.156 251.206,81.380 251.567 C 81.563 251.864,82.040 251.966,82.545 251.817 C 83.015 251.678,84.300 251.467,85.400 251.348 C 86.500 251.228,89.110 250.752,91.200 250.289 C 94.913 249.466,96.004 249.444,138.832 249.312 L 182.665 249.177 184.019 250.359 C 185.649 251.782,185.767 253.777,184.384 256.547 C 183.912 257.491,183.588 258.699,183.663 259.232 C 183.786 260.103,183.872 260.041,184.522 258.600 C 184.919 257.720,185.523 256.490,185.864 255.866 C 186.448 254.800,187.246 248.579,186.849 248.183 C 186.116 247.449,93.637 248.126,91.000 248.884 M79.039 250.956 C 79.161 251.276,79.544 251.646,79.888 251.778 C 80.863 252.152,80.814 251.869,79.768 251.087 C 79.051 250.550,78.870 250.518,79.039 250.956 M196.800 348.739 C 195.370 349.108,193.802 349.635,193.316 349.911 C 192.830 350.186,191.617 350.523,190.620 350.659 C 189.624 350.796,188.582 351.183,188.304 351.520 C 187.864 352.055,187.952 352.093,189.000 351.821 C 189.660 351.649,190.650 351.463,191.200 351.407 C 191.750 351.350,194.688 350.813,197.729 350.212 C 204.753 348.825,216.746 348.868,224.000 350.307 C 226.310 350.766,229.010 351.239,230.000 351.359 C 230.990 351.478,232.185 351.688,232.655 351.823 C 233.125 351.959,233.620 351.891,233.755 351.672 C 233.897 351.443,233.692 351.355,233.273 351.465 C 232.872 351.570,232.310 351.373,232.023 351.028 C 231.737 350.683,231.119 350.396,230.651 350.391 C 230.183 350.386,227.820 349.846,225.400 349.191 C 219.926 347.710,201.891 347.425,196.800 348.739 " stroke="none" fill="#acacac" fill-rule="evenodd"></path><path id="path4" d="M62.400 109.786 C 62.400 111.874,61.761 112.400,59.226 112.400 L 57.600 112.400 57.600 115.178 L 57.600 117.956 59.459 118.078 C 61.565 118.216,61.850 118.548,62.198 121.257 C 62.435 123.107,62.444 123.116,64.251 123.387 C 66.144 123.671,67.200 125.036,67.200 127.200 C 67.200 127.654,67.515 128.130,67.900 128.259 C 70.231 129.039,70.830 129.492,71.395 130.903 C 71.728 131.735,72.000 132.680,72.000 133.003 C 72.000 133.326,72.698 134.031,73.552 134.570 C 74.454 135.139,75.283 136.063,75.531 136.775 C 75.766 137.449,76.119 138.000,76.315 138.000 C 76.882 138.000,77.600 139.911,77.600 141.419 C 77.600 142.541,77.753 142.800,78.413 142.800 C 80.460 142.800,82.000 143.894,82.000 145.347 C 82.000 146.110,82.109 147.019,82.243 147.367 C 82.463 147.940,87.851 148.000,139.181 148.000 L 195.876 148.000 196.638 148.846 C 197.851 150.192,197.533 169.933,196.269 171.696 C 196.231 171.749,172.800 171.884,144.200 171.996 L 92.200 172.200 92.098 205.094 L 91.995 237.988 142.898 238.094 C 199.211 238.211,195.924 238.053,196.586 240.686 C 196.740 241.299,196.844 263.423,196.817 289.851 C 196.772 333.822,196.823 337.923,197.417 338.151 C 198.254 338.472,222.132 338.478,222.967 338.157 C 223.539 337.938,223.600 333.264,223.600 289.331 C 223.600 258.405,223.742 240.481,223.992 240.016 C 224.977 238.174,223.716 238.217,282.785 238.003 L 338.570 237.800 338.969 236.400 C 339.425 234.802,340.621 233.633,341.820 233.613 C 342.953 233.595,343.600 232.842,343.600 231.541 C 343.600 230.129,345.137 228.473,346.745 228.151 C 347.745 227.951,348.000 227.699,348.000 226.912 C 348.000 225.436,349.093 223.864,350.732 222.983 C 351.666 222.482,352.480 221.596,352.995 220.521 C 353.438 219.598,354.105 218.518,354.477 218.121 C 354.850 217.725,355.795 216.740,356.577 215.933 C 357.360 215.127,358.000 214.272,358.000 214.033 C 358.000 213.795,358.162 213.600,358.361 213.600 C 358.559 213.600,358.910 213.060,359.140 212.400 C 359.602 211.074,361.420 209.200,362.244 209.200 C 363.827 209.200,364.237 202.846,362.739 201.547 C 362.265 201.136,361.667 200.800,361.409 200.800 C 360.743 200.800,359.200 199.069,359.200 198.323 C 359.200 197.979,358.930 197.474,358.600 197.200 C 358.270 196.926,358.000 196.472,358.000 196.191 C 358.000 195.909,357.370 195.307,356.600 194.853 C 355.830 194.399,355.200 193.795,355.200 193.512 C 355.200 193.229,354.660 192.488,354.000 191.865 C 353.340 191.242,352.800 190.508,352.800 190.234 C 352.800 189.781,352.192 189.192,349.225 186.772 C 348.584 186.248,348.174 185.406,348.025 184.307 C 347.810 182.713,347.718 182.618,346.000 182.203 C 344.333 181.800,344.161 181.636,343.667 179.984 C 343.373 179.003,343.073 177.999,343.000 177.754 C 342.927 177.509,342.072 177.073,341.101 176.787 C 339.305 176.256,338.782 175.597,338.179 173.100 L 337.913 172.000 281.419 172.000 L 224.924 172.000 224.165 171.162 C 222.579 169.409,222.534 149.325,224.114 148.321 C 224.381 148.151,247.865 148.009,276.300 148.006 L 328.000 148.000 328.000 128.000 L 328.000 108.000 230.200 108.000 L 132.400 108.000 132.400 117.171 C 132.400 124.976,132.306 126.437,131.771 126.971 C 131.007 127.736,100.176 127.937,98.774 127.186 C 98.043 126.795,98.000 126.256,98.000 117.386 L 98.000 108.000 80.200 108.000 L 62.400 108.000 62.400 109.786 M42.933 132.000 C 43.056 132.770,43.279 134.632,43.429 136.137 C 43.721 139.078,45.454 141.600,47.180 141.600 C 47.704 141.600,48.142 142.144,48.614 143.380 C 49.383 145.393,50.138 146.183,51.631 146.537 C 52.724 146.795,53.600 148.228,53.600 149.757 C 53.600 150.920,54.607 151.831,56.400 152.291 C 57.671 152.617,57.822 152.809,58.033 154.371 C 58.281 156.206,58.776 156.685,61.197 157.434 C 62.229 157.753,62.631 158.123,62.719 158.834 C 62.917 160.451,63.650 161.962,64.343 162.184 C 64.704 162.300,65.354 162.926,65.787 163.574 C 66.220 164.222,66.895 164.836,67.287 164.939 C 67.679 165.041,68.000 165.415,68.000 165.770 C 68.000 166.734,70.871 170.341,71.862 170.623 C 72.336 170.757,72.815 171.213,72.925 171.634 C 73.186 172.633,73.878 172.615,74.200 171.600 C 74.404 170.959,74.805 170.800,76.227 170.800 L 78.000 170.800 78.000 169.147 C 78.000 166.783,79.203 165.069,81.580 164.047 C 85.066 162.547,84.560 161.944,79.191 161.197 C 74.785 160.584,74.135 160.298,73.456 158.672 C 72.967 157.501,72.656 157.286,71.168 157.086 C 69.146 156.815,68.099 155.691,67.920 153.600 C 67.810 152.319,67.681 152.189,66.400 152.069 C 64.583 151.898,63.603 150.982,63.587 149.438 C 63.570 147.751,62.892 146.994,61.000 146.549 C 59.557 146.210,59.367 146.018,59.061 144.587 C 58.599 142.425,58.246 141.821,57.357 141.678 C 55.248 141.336,54.398 140.685,53.932 139.052 C 53.296 136.827,52.909 136.400,51.525 136.400 C 50.111 136.400,48.686 135.708,49.012 135.180 C 49.142 134.971,49.068 134.800,48.849 134.800 C 48.630 134.800,48.394 134.215,48.325 133.500 C 48.202 132.223,48.162 132.198,46.000 132.084 C 44.510 132.005,43.624 131.747,43.255 131.284 C 42.776 130.682,42.737 130.768,42.933 132.000 M321.159 194.162 C 322.353 195.243,322.478 214.166,321.300 215.511 C 319.970 217.029,318.356 217.200,305.346 217.200 C 286.720 217.200,287.867 218.065,288.071 204.167 C 288.211 194.673,288.400 193.797,290.385 193.469 C 294.172 192.844,320.354 193.433,321.159 194.162 M377.112 221.265 C 377.009 221.572,375.987 221.864,374.575 221.990 C 372.214 222.200,372.210 222.202,371.975 223.659 C 371.668 225.557,370.782 226.400,369.091 226.400 C 367.561 226.400,366.400 227.392,366.400 228.699 C 366.400 230.232,365.931 230.788,364.259 231.235 C 362.164 231.795,361.600 232.261,361.600 233.430 C 361.600 235.206,360.786 236.314,359.272 236.598 C 357.714 236.890,356.836 237.746,356.807 239.000 C 356.767 240.731,355.844 241.792,354.198 242.000 C 352.561 242.207,352.376 242.458,351.824 245.231 C 351.603 246.342,350.194 247.200,348.589 247.200 C 347.862 247.200,347.417 247.592,346.825 248.751 C 345.706 250.944,349.626 250.800,291.229 250.800 C 230.469 250.800,236.105 250.462,236.508 254.078 C 237.049 258.949,237.654 260.647,239.129 261.441 C 241.388 262.658,345.052 262.624,347.200 261.406 C 349.076 260.342,350.800 258.771,350.800 258.125 C 350.800 257.836,350.984 257.600,351.209 257.600 C 351.433 257.600,351.838 257.105,352.109 256.500 C 352.379 255.895,353.659 254.391,354.954 253.158 C 356.772 251.425,357.363 250.569,357.555 249.393 C 357.767 248.087,358.000 247.810,359.204 247.436 C 361.461 246.734,361.899 246.302,362.269 244.417 C 362.600 242.729,362.712 242.611,364.367 242.208 C 366.064 241.795,367.600 240.045,367.600 238.525 C 367.600 238.257,368.222 237.743,368.982 237.382 C 370.775 236.531,371.239 235.934,371.787 233.776 C 372.175 232.246,372.489 231.870,374.019 231.098 C 376.073 230.062,376.606 228.887,377.221 224.032 C 377.570 221.285,377.520 220.039,377.112 221.265 M78.197 250.805 C 78.039 251.060,78.110 251.470,78.355 251.715 C 78.600 251.960,78.800 252.008,78.800 251.822 C 78.800 251.635,79.250 251.969,79.800 252.562 C 80.350 253.156,80.800 253.915,80.800 254.249 C 80.800 254.584,81.230 255.610,81.756 256.529 C 82.281 257.448,82.916 258.848,83.167 259.641 C 84.027 262.359,80.768 262.188,134.261 262.315 L 182.723 262.430 183.168 259.515 C 183.412 257.912,183.800 255.669,184.028 254.530 C 184.387 252.741,184.347 252.348,183.733 251.630 L 183.022 250.800 138.611 250.829 C 112.134 250.847,93.312 251.014,92.000 251.243 C 86.646 252.179,80.185 252.165,79.301 251.216 C 78.735 250.608,78.396 250.482,78.197 250.805 M236.594 350.833 C 236.742 351.224,236.598 351.512,236.217 351.585 C 234.500 351.913,226.253 351.723,223.800 351.300 C 219.589 350.572,200.305 350.642,196.000 351.400 C 194.130 351.729,191.543 351.999,190.251 351.999 L 187.902 352.000 188.090 355.500 C 188.469 362.577,187.192 362.200,210.800 362.200 C 231.937 362.200,231.612 362.241,232.155 359.526 C 232.292 358.842,232.938 357.414,233.591 356.352 C 234.245 355.290,234.894 353.967,235.033 353.411 C 235.173 352.855,235.515 352.400,235.794 352.400 C 236.692 352.400,237.399 351.238,236.839 350.683 C 236.458 350.305,236.405 350.338,236.594 350.833 " stroke="none" fill="#5c5c5c" fill-rule="evenodd"></path></g></svg>