<svg width="204" height="74" xmlns="http://www.w3.org/2000/svg"><g fill-rule="nonzero" fill="none"><path d="M32.908 32.178c.169-.38.71-.635 1.17-.635.651 0 .801.37.761.654-.045.34-.341.566-.745.626a.687.687 0 0 1-.111.008c-.284 0-.575-.14-.5-.24.038-.05.135-.178.06-.332-.056-.118-.184-.17-.322-.17a.599.599 0 0 0-.313.09m8.018-4.285c-.669 0-1.247.481-1.934 1.308-.188.223-.387.415-.535.415-.093 0-.166-.078-.2-.272-.055-.324.19-.98-.087-.98h-.02c-.718.075-1.183.486-1.59 1.02-.313.411-.336.627-.7.638-.724.033-1.063.063-1.621.197a4.733 4.733 0 0 0-1.371.55c-.422.262-.738.656-1.727.664-1.582.014-3.592.05-4.372.2-.802.151-.915.66-.49 1.372.498.832.646 2.621 1.654 2.876.26.553.44.978.689.978h.021c.09-.02.18-.296.247-.55.139-.559.68-.583 1.037-.6.178-.01.348-.016.51-.016.663 0 1.21.088 1.698.362.416.235.62.653.541.815-.043.09-.102.113-.207.113-.063 0-.142-.009-.245-.017a4.306 4.306 0 0 0-.386-.018c-.277 0-.646.027-1.148.13-.873.175-1.409.644-2.534.644-1.677 0-2.5-1.136-2.794-2.15-.101-.347-.183-.676-.414-.676-.108 0-.25.073-.442.252-.77.72-.826 2.09-.03 2.925.527.555 1.265.843 2.155.925a10.864 10.864 0 0 0 1.262.014s-.127.348.064.656c.133.213.45.393.936.393.216 0 .465-.035.745-.119.78-.232 1.495-.455 2.136-.455.435 0 .837.103 1.2.375.165.122.367.348.367.494 0 .268-.983 1.035-3.738 1.776-3.387.912-4.181 3.18-3.838 4.42l.19.23h.003c.1 0 .612-.3.905-.354a.955.955 0 0 1 .154-.015c.375 0 .172.385.108.858-.262 1.881 2.41 4.252 4.77 5.887 1.308.904 2.01 1.213 2.34 1.213.337 0 1.037-.25 2.34-1.213 3.68-2.72 6.118-6.527 5.723-8.555-.224-1.15-.824-1.852-.538-2.037a.346.346 0 0 1 .19-.049c.162 0 .357.075.533.151.178.076.337.151.427.151.02 0 .037-.003.05-.01.368-.23.538-2.36-.144-4.589-.647-2.116-1.373-2.96-1.806-4.693-.056-.227-.194-.913-.134-1.095.058-.183.2-.549.305-.853.54-1.566.291-3.207.119-3.579l-.156-.09a1.463 1.463 0 0 0-.218-.017" fill="#2B4375"/><path d="M3.184 36.625c-.352 0-.941.727-1.453 1.8C1.13 39.682.8 40.874.8 43.14c0 5.744 4.744 11.597 11.55 11.597.25 0 .504-.008.76-.024 6.295-.398 9.87-5.165 9.87-10.024 0-2.293-1.316-4.88-4.028-4.88-.057 0-.114.002-.172.004-3.21.126-3.72 2.227-3.72 3.387 0 2.862 1.23 4.388 1.07 5.103-.107.483-1.278.72-2.284.72h-.104c-3.505-.058-8.654-4.295-10.051-11.593-.056-.298-.16-.804-.507-.805" fill="#2F5790"/><path d="M12.545 15.248C5.351 15.248.8 20.719.8 26.809c0 1.594.445 3.654.935 4.812.455 1.074.958 2.029 1.358 2.029.461 0 .498-.65.582-1.275.576-4.263 2.981-7.431 5.652-8.949 2.101-1.193 4.193-1.575 6.128-1.575 1.986 0 3.808.402 5.306.74.13.029.252.045.363.045.267 0 .473-.087.57-.276.111-.22.032-.47-.315-.835-1.39-1.465-4.59-4.648-4.992-4.983-.974-.812-2.583-1.294-3.842-1.294M41.955.515c-.348 0-.685.016-1.004.043-2.208.19-3.417.711-4.242 1.094-.442.205-.808.459-.808.705 0 .222.475.49.695.657.878.667 1.564 1.217 3.473 3.215 1.47 1.54 3.351 4.19 4.137 6.006.611 1.411.921 4.419.616 7.477-.045.461 0 .764.202.918a.332.332 0 0 0 .205.065c.247 0 .539-.213.686-.346.394-.354 3.389-3.334 4.787-4.862.945-1.03 1.262-2.817 1.262-4.803 0-1.669-.223-4.135-1.818-6.173C47.664 1.338 44.474.515 41.955.515" fill="#3E6FA5"/><path d="M26.515.515c-2.52 0-5.71.823-8.191 3.996-1.595 2.038-1.818 4.504-1.818 6.173 0 1.986.317 3.773 1.262 4.803 1.398 1.528 4.393 4.508 4.787 4.862.147.133.439.346.686.346a.332.332 0 0 0 .205-.065c.202-.154.247-.457.202-.918-.305-3.058.005-6.066.616-7.477.786-1.816 2.667-4.466 4.137-6.006 1.908-1.998 2.595-2.548 3.473-3.215.22-.167.695-.435.695-.657 0-.246-.366-.5-.808-.705-.825-.383-2.034-.904-4.242-1.094-.32-.027-.656-.043-1.004-.043" fill="#2F5790"/><path d="M15.399 23.515c-5.423 0-9.943 3.822-10.247 10.681-.293 6.613 4.712 12.575 7.958 13.225.205.041.376.06.517.06.658 0 .65-.428.428-1.07-.371-1.073-1.208-3.84.156-5.978 1.056-1.655 2.56-2.08 3.72-2.189.338-.03.79-.057 1.008-.083.854-.1 1.087-.348 1.087-.926v-4.794c0-1.218.23-1.565.82-2.154l3.126-3.125c.629-.629.483-1.124.04-1.466-1.395-1.079-5.415-2.18-8.613-2.18" fill="#F0A92C"/><path d="M65.286 36.625h-.001c-.347.001-.451.507-.507.805-1.397 7.298-6.545 11.535-10.05 11.592l-.104.001c-1.007 0-2.178-.237-2.286-.72-.16-.715 1.07-2.24 1.07-5.103 0-1.16-.51-3.26-3.72-3.387-.057-.002-.114-.004-.171-.004-2.712 0-4.03 2.587-4.03 4.88 0 4.86 3.578 9.626 9.872 10.024.256.016.51.024.76.024 6.806 0 11.55-5.853 11.55-11.597 0-2.265-.328-3.457-.93-4.716-.512-1.072-1.101-1.799-1.453-1.799" fill="#3E6FA5"/><path d="M55.924 15.248c-1.259 0-2.868.482-3.842 1.294-.4.335-3.6 3.518-4.992 4.983-.347.365-.426.615-.314.835.097.189.302.276.57.276.111 0 .233-.016.362-.045 1.5-.338 3.32-.74 5.306-.74 1.935 0 4.027.382 6.13 1.575 2.67 1.518 5.075 4.686 5.65 8.949.084.625.121 1.275.582 1.275.4 0 .903-.955 1.358-2.029.49-1.158.936-3.218.936-4.812 0-6.09-4.552-11.561-11.746-11.561" fill="#2F5790"/><path d="M53.071 23.515c-3.198 0-7.218 1.102-8.613 2.181-.443.342-.589.837.04 1.466l3.125 3.125c.59.59.821.936.821 2.154v4.794c0 .578.233.825 1.087.926.218.026.67.052 1.008.083 1.16.108 2.664.534 3.72 2.19 1.363 2.136.527 4.904.156 5.977-.222.642-.23 1.07.428 1.07.141 0 .312-.019.517-.06 3.246-.65 8.251-6.612 7.958-13.225-.304-6.859-4.825-10.68-10.247-10.68M44.713 53.018c-.358 0-.7.177-1.016.502-1.351 1.382-2.224 2.201-3.842 3.42-.82.616-.843 1.422-.315 2.134.506.683 1.377 1.507 2.166 2.246.924.866 2.606 1.49 4.434 1.49a7.75 7.75 0 0 0 1.374-.12c3.583-.64 4.766-3.505 4.69-5.979-.018-.62-.276-.983-.545-1.114a1.214 1.214 0 0 0-.556-.123c-.128 0-.258.014-.4.027a4.906 4.906 0 0 1-.465.026c-.082 0-.17-.003-.261-.01-1.872-.155-3.153-.976-4.194-1.98-.367-.355-.726-.519-1.07-.519M23.757 53.018c-.344 0-.703.164-1.07.518-1.04 1.005-2.322 1.826-4.194 1.981-.092.007-.179.01-.26.01-.173 0-.325-.013-.466-.026-.142-.013-.272-.027-.4-.027-.183 0-.36.028-.555.123-.27.131-.528.493-.546 1.114-.076 2.474 1.107 5.34 4.69 5.978.461.083.922.121 1.374.121 1.827 0 3.51-.624 4.434-1.49.79-.739 1.66-1.563 2.166-2.246.528-.712.504-1.518-.315-2.134-1.617-1.219-2.49-2.038-3.842-3.42-.317-.325-.658-.502-1.016-.502" fill="#F0A92C"/><path d="M34.235 3.762c-1.02 0-2.691 1.562-4.608 3.576-1.883 1.977-3.815 4.888-4.124 6.427-.31 1.54-.726 4.754.388 9.408.316 1.318 1.045 1.444 1.869 1.444h12.949c.824 0 1.554-.126 1.869-1.444 1.114-4.654.697-7.869.388-9.408-.307-1.539-2.24-4.45-4.123-6.427-1.918-2.014-3.591-3.576-4.608-3.576M36.723 59.122c-.069 0-.141.005-.218.015-.624.081-1.347.644-2.27.644s-1.646-.563-2.271-.644a1.662 1.662 0 0 0-.217-.015c-.412 0-.721.18-1.136.595a40.497 40.497 0 0 0-2.383 2.626c-.484.594-1.141 1.585-.239 3.896 1.107 2.839 5.082 6.581 6.246 6.581 1.164 0 5.139-3.742 6.246-6.581.902-2.311.245-3.302-.239-3.896a40.507 40.507 0 0 0-2.384-2.626c-.414-.415-.723-.595-1.135-.595" fill="#ED952D"/><g fill="#324986"><path d="M94.368 62.719h-2.784l-4.416-6.144v6.144h-2.16V46.903a20.93 20.93 0 0 0-2.088-.24v-1.296a26.24 26.24 0 0 1 4.248-.168v10.824l4.2-5.232h2.64l-4.584 5.448 4.944 6.48zM103.584 50.599l-.096 2.112c-1.296-.239-2.259.085-2.892.973-.631.888-.948 2.3-.948 4.235v4.8h-2.16V52.495a20.901 20.901 0 0 0-2.088-.24v-1.296c1.505-.174 2.897-.231 4.176-.168 0 .993-.087 1.938-.264 2.832h.048c.288-.975.777-1.754 1.464-2.339.689-.583 1.608-.811 2.76-.685zM116.592 62.55c-1.52.178-2.895.233-4.128.169 0-1.134.04-1.926.12-2.376h-.048c-.303.753-.816 1.374-1.536 1.861-.72.49-1.56.73-2.52.73-.992 0-1.791-.281-2.4-.85-.607-.567-.912-1.332-.912-2.293 0-1.295.636-2.315 1.908-3.059 1.272-.744 3.029-1.116 5.268-1.117v-.792c0-.863-.2-1.502-.6-1.919-.399-.415-1.071-.624-2.016-.625-1.28.001-2.455.297-3.528.888l-.36-1.8c1.409-.543 2.808-.815 4.2-.816 1.649.001 2.805.346 3.468 1.033.665.689.996 1.673.996 2.95v6.48a19.41 19.41 0 0 0 2.088.24v1.297zm-4.248-5.111v-.312c-3.36.001-5.04.77-5.04 2.304 0 .53.165.961.492 1.297.328.336.765.504 1.308.503.928.001 1.701-.383 2.316-1.15a4.101 4.101 0 0 0 .924-2.642zM122.232 47.023c0 .385-.135.714-.408.985a1.364 1.364 0 0 1-1.008.408c-.399 0-.74-.132-1.02-.396a1.314 1.314 0 0 1-.42-.996c0-.399.141-.735.42-1.008.28-.271.621-.408 1.02-.408.4 0 .736.137 1.008.408.273.273.408.608.408 1.007zm-.336 17.016c0 1.648-.307 2.856-.924 3.624-.615.768-1.683 1.152-3.204 1.152-.624 0-1.175-.072-1.656-.216l.192-1.896a4.43 4.43 0 0 0 1.512.288c.753 0 1.26-.192 1.524-.576.264-.384.396-1.112.396-2.184V52.495a20.901 20.901 0 0 0-2.088-.24v-1.296a26.218 26.218 0 0 1 4.248-.168v13.248zM141.192 51.175c0 1.585-.584 2.881-1.752 3.89-1.167 1.007-2.671 1.511-4.512 1.51a12.09 12.09 0 0 1-1.296-.048v6.192h-2.208v-16.2c1.6-.063 2.928-.095 3.984-.096 1.84.001 3.264.43 4.272 1.285 1.008.857 1.512 2.012 1.512 3.467zm-2.304.216c0-2.094-1.239-3.143-3.72-3.144a37.79 37.79 0 0 0-1.536.024v6.384c.369.066.809.097 1.32.096 1.2-.015 2.157-.323 2.868-.923.712-.6 1.068-1.411 1.068-2.437zM150.72 50.599l-.096 2.112c-1.296-.239-2.259.085-2.892.973-.632.888-.948 2.3-.948 4.235v4.8h-2.16V52.495a20.901 20.901 0 0 0-2.088-.24v-1.296c1.505-.174 2.896-.231 4.176-.168 0 .993-.087 1.938-.264 2.832h.048c.288-.975.777-1.754 1.464-2.339.688-.583 1.608-.811 2.76-.685zM163.728 62.55c-1.52.178-2.895.233-4.128.169 0-1.134.04-1.926.12-2.376h-.048c-.303.753-.816 1.374-1.536 1.861-.72.49-1.56.73-2.52.73-.991 0-1.791-.281-2.4-.85-.607-.567-.912-1.332-.912-2.293 0-1.295.636-2.315 1.908-3.059 1.272-.744 3.029-1.116 5.268-1.117v-.792c0-.863-.2-1.502-.6-1.919-.399-.415-1.071-.624-2.016-.625-1.28.001-2.455.297-3.528.888l-.36-1.8c1.409-.543 2.808-.815 4.2-.816 1.649.001 2.805.346 3.468 1.033.665.689.996 1.673.996 2.95v6.48a19.41 19.41 0 0 0 2.088.24v1.297zm-4.248-5.111v-.312c-3.36.001-5.04.77-5.04 2.304 0 .53.165.961.492 1.297.329.336.765.504 1.308.503.928.001 1.701-.383 2.316-1.15a4.101 4.101 0 0 0 .924-2.642zM176.088 62.719h-2.16v-7.68c0-.894-.151-1.566-.456-2.015-.303-.447-.824-.672-1.56-.673-.975.001-1.788.445-2.436 1.333-.648.888-.972 1.997-.972 3.323v5.712h-2.16V46.903a20.93 20.93 0 0 0-2.088-.24v-1.296a26.24 26.24 0 0 1 4.248-.168v5.664c0 1.01-.063 1.801-.192 2.376l.048.024a4.34 4.34 0 0 1 1.608-1.967c.72-.48 1.569-.72 2.544-.721 2.385.001 3.576 1.273 3.576 3.816v8.328zM190.656 62.55c-1.52.178-2.895.233-4.128.169 0-1.134.04-1.926.12-2.376h-.048c-.303.753-.816 1.374-1.536 1.861-.72.49-1.56.73-2.52.73-.991 0-1.791-.281-2.4-.85-.607-.567-.912-1.332-.912-2.293 0-1.295.636-2.315 1.908-3.059 1.272-.744 3.029-1.116 5.268-1.117v-.792c0-.863-.2-1.502-.6-1.919-.399-.415-1.071-.624-2.016-.625-1.28.001-2.455.297-3.528.888l-.36-1.8c1.409-.543 2.808-.815 4.2-.816 1.648.001 2.805.346 3.468 1.033.665.689.996 1.673.996 2.95v6.48a19.41 19.41 0 0 0 2.088.24v1.297zm-4.248-5.111v-.312c-3.36.001-5.04.77-5.04 2.304 0 .53.165.961.492 1.297.329.336.765.504 1.308.503.928.001 1.701-.383 2.316-1.15a4.101 4.101 0 0 0 .924-2.642z"/></g><path d="M96.365 16.33c.385.07.595.035.665-.385l.56-3.745c.035-.28-.105-.525-.42-.595-1.225-.315-3.01-.455-4.13-.455-6.685 0-10.08 2.345-10.08 7.105 0 7.525 10.255 6.685 10.255 10.745 0 1.785-2.03 2.52-4.62 2.52-1.645 0-3.255-.35-5.075-1.225-.49-.245-.735-.07-.84.28-.105.42-.105.735-.105 1.155 0 2.17 1.26 4.62 6.23 4.62 5.67 0 10.08-2.45 10.08-7.56 0-7.7-10.255-6.545-10.255-10.57 0-.84.56-2.24 4.095-2.24.98 0 2.415.105 3.64.35zm5.145-4.83c-.42 0-.7.175-.665.595.21 2.59 1.05 3.745 2.905 4.025v19.355c0 .28.245.525.525.525h4.445c.28 0 .525-.245.525-.525V23.68l6.79 9.66c1.47 2.1 2.87 3.185 5.495 3.185 1.33 0 2.31-.56 2.835-.98.21-.175.315-.42 0-.7-1.645-1.54-5.845-7.49-8.995-11.55-.105-.14-.105-.28 0-.42l7.875-10.395c.385-.525.07-.98-.56-.98h-4.305c-.665 0-1.155.245-1.47.7l-7.665 10.36v-8.365c0-1.645-1.225-2.87-2.87-2.87-1.715 0-3.15.175-4.865.175zm30.415 0c2.905 0 5.53-.175 8.435-.175 3.5 0 4.34 1.19 5.075 3.22l6.3 17.675c.665 1.82 1.19 2.625 1.54 3.115.105.14.105.35-.035.455-.455.35-1.33.735-2.765.735-2.415 0-3.85-.875-4.55-2.94l-.77-2.31c-.105-.35-.28-.455-.63-.455h-9.205c-.315 0-.455.14-.56.455l-1.435 4.235c-.105.28-.28.49-.7.49h-4.655c-.42 0-.7-.385-.56-.805l6.755-19.075c-1.855-.28-2.695-1.435-2.905-4.025-.035-.42.245-.595.665-.595zm11.41 14.455c.28 0 .35-.14.28-.42l-2.765-8.785c-.175-.56-.42-.805-.875-.805h-.455l-3.08 9.625c-.07.245.035.385.315.385h6.58zm13.37-9.835v11.515c0 5.845 3.465 8.68 10.15 8.68 6.405 0 10.15-3.115 10.15-8.68v-15.61a.538.538 0 0 0-.525-.525h-4.445a.538.538 0 0 0-.525.525V26.48c0 3.29-1.68 5.005-4.655 5.005-2.975 0-4.655-1.715-4.655-5.005V14.23c0-1.96-1.19-2.905-2.905-2.905-1.4 0-2.975.14-4.83.175-.42 0-.7.175-.665.595.21 2.59 1.05 3.745 2.905 4.025zm36.89.245h5.6c.28 0 .525-.245.525-.525v-3.815a.538.538 0 0 0-.525-.525H181.8a.538.538 0 0 0-.525.525v3.815c0 .28.245.525.525.525h5.6c.21 0 .35.14.35.35V29.98c0 4.585 1.365 6.37 4.76 6.37 2.87 0 4.515-1.995 4.795-3.71.105-.63-.07-.945-.595-.875-.385.035-1.05.035-1.435-.035-1.47-.21-2.03-.84-2.03-3.43V16.715c0-.21.14-.35.35-.35z" fill="#324986"/></g></svg>