<svg width="216px" height="233px" viewBox="0 0 216 216" version="1.1" xmlns="http://www.w3.org/2000/svg" xmlns:xlink="http://www.w3.org/1999/xlink">
    <g id="Group" stroke="none" stroke-width="1" fill="none" fill-rule="evenodd">
        <path d="M208.4,113.2 C207.5,112.3 207.5,111.4 208.4,110.4 C210,108.5 211.4,105.9 212.5,103.2 C214.1,99.3 215.9,92.4 215.9,86.4 C215.9,63 198,45.4 174.3,45.4 C173.1,45.4 170.9,45.6 169.6,45.9 C167.9,46.2 167.1,46 167.4,43.7 C167.5,43.3 167.9,40.5 167.9,37.1 C167.9,27.9 165.7,20.6 161.2,14.8 C151.9,2.9 140.1,0.4 131.8,0.4 C123,0.4 116.6,2.9 113.4,4.4 C110.2,5.9 108.7,6.3 108.2,6.3 C107.7,6.3 106.2,5.9 103,4.4 C99.8,2.9 93.4,0.4 84.6,0.4 C76.3,0.4 64.4,2.9 55.2,14.8 C50.7,20.6 48.5,27.9 48.5,37.1 C48.5,40.5 48.9,43.3 49,43.7 C49.3,46 48.5,46.2 46.8,45.9 C45.5,45.7 43.3,45.4 42.1,45.4 C18.4,45.4 0.5,63 0.5,86.4 C0.5,92.4 2.3,99.3 3.9,103.2 C5,105.9 6.4,108.5 8,110.4 C8.9,111.4 8.8,112.3 8,113.2 C6.6,114.7 5.3,116.7 4,119.3 C1.8,123.9 0.5,128.3 0.5,136.1 C0.5,146.2 4.7,156.4 11.9,164.2 C19.7,172.6 30.2,177.2 41.5,177.2 L41.5,177.2 C42.4,177.2 44.4,177.1 45.5,177 C47.4,176.8 47.8,177.1 47.8,179 C48.1,188.8 53.9,199.1 66.8,201.4 C72.7,202.4 77.4,201.5 79.9,200.8 C82.2,200.2 82.2,200.8 82.3,202.5 C82.5,204.5 83,206.6 83.9,208.9 C87.6,218.4 101.2,232.5 108.2,232.5 C115.3,232.5 128.8,218.4 132.5,208.9 C133.4,206.6 133.9,204.5 134.1,202.5 C134.3,200.9 134.3,200.2 136.5,200.8 C139,201.5 143.7,202.5 149.6,201.4 C162.4,199.1 168.3,188.8 168.6,179 C168.7,177.2 169,176.8 170.9,177 C171.9,177.1 174,177.2 174.9,177.2 L174.9,177.2 C186.2,177.2 196.7,172.6 204.5,164.2 C211.8,156.4 215.9,146.2 215.9,136.1 C215.9,128.2 214.5,123.8 212.4,119.3 C211.1,116.7 209.8,114.7 208.4,113.2 L208.4,113.2 Z" id="Shape" fill="#FFFFFF"></path>
        <g transform="translate(6.000000, 6.000000)" id="Shape">
            <path d="M122.8,100.8 C122.6,100.1 122.2,98 122.4,97.5 C122.6,96.9 123,95.8 123.3,94.9 C124.9,90.1 124.2,85.1 123.7,84 C123.6,83.8 123.4,83.7 123.2,83.7 C120.9,83.3 119,84.8 116.6,87.6 C115.7,88.7 114.6,89.6 114.4,88 C114.2,87 115,84.9 114.1,85 C111.9,85.2 110.5,86.5 109.2,88.1 C108.2,89.4 108.2,90 107.1,90.1 C104.9,90.2 103.9,90.3 102.1,90.7 C100.4,91.1 98.9,91.7 97.9,92.4 C96.6,93.2 95.7,94.4 92.6,94.4 C87.8,94.4 81.6,94.6 79.3,95 C76.9,95.5 76.5,97 77.8,99.2 C79.3,101.7 79.8,107.2 82.9,108 C83.7,109.7 84.3,111.1 85.1,111 C85.4,110.9 85.7,110.1 85.9,109.3 C86.3,107.6 88,107.5 89.1,107.5 C91.9,107.4 94,107.5 95.8,108.6 C97.1,109.3 97.7,110.6 97.5,111.1 C97.1,112 96.2,110.8 91.4,111.7 C88.7,112.2 87.1,113.7 83.7,113.7 C78.6,113.7 76.1,110.2 75.2,107.1 C74.7,105.5 74.4,104.1 72.6,105.8 C70.3,108 70.1,112.2 72.5,114.7 C74.1,116.4 76.4,117.3 79.1,117.5 C79.9,117.6 81.6,117.6 83,117.5 C83,117.5 82.6,118.6 83.2,119.5 C83.8,120.4 85.5,121.2 88.3,120.3 C92.3,119.1 95.7,118 98.5,120.1 C99,120.5 99.6,121.2 99.6,121.6 C99.6,122.4 96.6,124.8 88.2,127 C77.9,129.8 75.4,136.7 76.5,140.5 C76.6,140.8 76.8,141.2 77.1,141.2 C77.4,141.2 79,140.3 79.9,140.1 C81.7,139.8 80.9,141.1 80.7,142.7 C79.9,148.4 88.1,155.7 95.3,160.7 C99.3,163.5 101.4,164.4 102.4,164.4 C103.4,164.4 105.6,163.6 109.5,160.7 C120.7,152.4 128.2,140.8 127,134.6 C126.3,131.1 124.5,128.9 125.4,128.4 C126.4,127.8 128.6,129.4 129.1,129.1 C130.2,128.4 130.7,121.9 128.7,115.1 C126.3,108.7 124.1,106.1 122.8,100.8 L122.8,100.8 Z M101.6,98.6 C100.6,98.7 99.5,98.2 99.7,97.9 C99.8,97.8 100.1,97.4 99.9,96.9 C99.6,96.3 98.6,96.2 98,96.7 C98.5,95.5 100.2,94.8 101.6,94.8 C103.6,94.8 104,95.9 103.9,96.8 C103.8,97.8 102.9,98.5 101.6,98.6 L101.6,98.6 Z" fill="#294885"></path>
            <g fill="#3979B5">
                <path d="M8.8,97.3 C10.6,84.3 17.9,74.6 26,70 C39,62.6 51.9,65.4 60.9,67.4 C62.2,67.7 63.3,67.5 63.7,66.7 C64,66 63.8,65.3 62.7,64.1 C58.5,59.6 48.7,49.9 47.5,48.9 C44.5,46.4 39.6,45 35.8,45 C13.8,45 7.10542736e-15,61.7 7.10542736e-15,80.3 C7.10542736e-15,85.2 1.4,91.5 2.9,95 C4.3,98.3 5.8,101.2 7,101.2 C8.4,101.2 8.5,99.2 8.8,97.3 L8.8,97.3 Z"></path>
                <path d="M135,61.4 C134.4,60.9 134.2,60 134.4,58.6 C135.3,49.3 134.4,40.1 132.5,35.8 C130.1,30.3 124.4,22.2 119.9,17.5 C114.1,11.4 112,9.7 109.3,7.7 C108.6,7.2 107.2,6.4 107.2,5.7 C107.2,4.9 108.3,4.2 109.7,3.5 C112.2,2.3 115.9,0.7 122.6,0.2 C130.6,-0.5 142,1.2 150.7,12.3 C155.6,18.5 156.2,26 156.2,31.1 C156.2,37.2 155.2,42.6 152.3,45.8 C148,50.5 138.9,59.6 137.7,60.6 C137.1,61.1 135.8,62 135,61.4 L135,61.4 Z"></path>
                <path d="M166.5,165.4 C188.5,166.8 204.1,148.3 204.1,130.1 C204.1,123.2 203.1,119.5 201.3,115.7 C199.7,112.4 197.9,110.2 196.9,110.2 C195.8,110.2 195.5,111.7 195.4,112.7 C191.1,135 175.4,147.9 164.7,148.1 C161.6,148.2 157.7,147.4 157.4,145.9 C156.9,143.7 160.7,139.1 160.7,130.3 C160.7,126.8 159.1,120.3 149.4,120 C140.8,119.7 136.6,127.7 136.6,134.9 C136.4,149.7 147.3,164.2 166.5,165.4 L166.5,165.4 Z"></path>
            </g>
            <g fill="#255C9E">
                <path d="M37.6,165.4 C15.6,166.8 -7.10542736e-15,148.3 -7.10542736e-15,130.1 C-7.10542736e-15,123.2 1,119.5 2.8,115.7 C4.4,112.4 6.2,110.2 7.2,110.2 C8.3,110.2 8.6,111.7 8.7,112.7 C13,135 28.7,147.9 39.4,148.1 C42.5,148.2 46.4,147.4 46.7,145.9 C47.2,143.7 43.4,139.1 43.4,130.3 C43.4,126.8 45,120.3 54.7,120 C63.3,119.7 67.5,127.7 67.5,134.9 C67.7,149.7 56.8,164.2 37.6,165.4 L37.6,165.4 Z"></path>
                <path d="M69.1,61.4 C69.7,60.9 69.9,60 69.7,58.6 C68.8,49.3 69.7,40.1 71.6,35.8 C74,30.3 79.7,22.2 84.2,17.5 C90,11.4 92.1,9.7 94.8,7.7 C95.5,7.2 96.9,6.4 96.9,5.7 C96.9,4.9 95.8,4.2 94.4,3.5 C91.9,2.3 88.2,0.7 81.5,0.2 C73.5,-0.5 62.1,1.2 53.4,12.3 C48.6,18.4 48,26 48,31.1 C48,37.2 49,42.6 51.9,45.8 C56.2,50.5 65.3,59.6 66.5,60.6 C67,61.1 68.3,62 69.1,61.4 L69.1,61.4 Z"></path>
                <path d="M195.3,97.3 C193.5,84.3 186.2,74.6 178.1,70 C165.1,62.6 152.2,65.4 143.2,67.4 C141.9,67.7 140.8,67.5 140.4,66.7 C140.1,66 140.3,65.3 141.4,64.1 C145.6,59.6 155.4,49.9 156.6,48.9 C159.6,46.4 164.5,45 168.3,45 C190.3,45 204.1,61.7 204.1,80.3 C204.1,85.2 202.7,91.5 201.2,95 C199.8,98.3 198.3,101.2 197.1,101.2 C195.7,101.2 195.6,99.2 195.3,97.3 L195.3,97.3 Z"></path>
            </g>
            <g transform="translate(13.000000, 70.000000)" fill="#F9B200">
                <path d="M31.6,0.2 C41.4,0.2 53.6,3.6 57.9,6.9 C59.3,7.9 59.7,9.5 57.8,11.4 C55.3,13.9 50.3,18.9 48.3,20.9 C46.5,22.7 45.8,23.8 45.8,27.5 L45.8,42.1 C45.8,43.9 45.1,44.6 42.5,44.9 C41.8,45 40.5,45.1 39.4,45.2 C35.9,45.5 31.3,46.8 28,51.9 C23.8,58.4 26.4,66.9 27.5,70.1 C28.3,72.5 28.2,73.9 24.6,73.2 C14.7,71.2 -0.6,53 0.3,32.8 C1.2,11.9 15,0.2 31.6,0.2 L31.6,0.2 Z"></path>
                <path d="M146.6,0.2 C136.8,0.2 124.6,3.6 120.3,6.9 C118.9,7.9 118.5,9.5 120.4,11.4 C122.9,13.9 127.9,18.9 129.9,20.9 C131.7,22.7 132.4,23.8 132.4,27.5 L132.4,42.1 C132.4,43.9 133.1,44.6 135.7,44.9 C136.4,45 137.7,45.1 138.8,45.2 C142.3,45.5 146.9,46.8 150.2,51.9 C154.4,58.4 151.8,66.9 150.7,70.1 C149.9,72.5 150,73.9 153.6,73.2 C163.5,71.2 178.8,53 177.9,32.8 C176.9,11.9 163.1,0.2 146.6,0.2 L146.6,0.2 Z"></path>
                <path d="M106.2,102.2 C111.1,98.5 113.8,96 117.9,91.8 C119.8,89.9 122,89.6 124.3,91.8 C127.5,94.9 131.4,97.4 137.1,97.8 C139.4,98 140.6,97.3 142.2,98 C143,98.4 143.8,99.5 143.9,101.4 C144.1,108.9 140.5,117.7 129.6,119.6 C122.5,120.9 115.4,118.7 111.9,115.4 C109.5,113.1 106.8,110.6 105.3,108.5 C103.7,106.6 103.7,104.1 106.2,102.2 L106.2,102.2 Z"></path>
                <path d="M71.9,102.2 C67,98.5 64.3,96 60.2,91.8 C58.3,89.9 56.1,89.6 53.8,91.8 C50.6,94.9 46.7,97.4 41,97.8 C38.7,98 37.5,97.3 35.9,98 C35.1,98.4 34.3,99.5 34.2,101.4 C34,108.9 37.6,117.7 48.5,119.6 C55.6,120.9 62.7,118.7 66.2,115.4 C68.6,113.1 71.3,110.6 72.8,108.5 C74.5,106.6 74.4,104.1 71.9,102.2 L71.9,102.2 Z"></path>
            </g>
            <g transform="translate(74.000000, 10.000000)" fill="#F49E00">
                <path d="M1.4,30.5 C2.3,25.8 8.2,16.9 14,10.9 C19.9,4.8 25,7.10542736e-15 28.1,7.10542736e-15 C31.2,7.10542736e-15 36.3,4.8 42.2,10.9 C47.9,16.9 53.8,25.8 54.8,30.5 C55.7,35.2 57,45 53.6,59.2 C52.6,63.2 50.4,63.6 47.9,63.6 L8.4,63.6 C5.9,63.6 3.7,63.2 2.7,59.2 C-0.8,45 0.5,35.2 1.4,30.5 L1.4,30.5 Z"></path>
                <path d="M28.1,170.9 C30.9,170.9 33.1,169.2 35,168.9 C36.6,168.7 37.7,169.2 39.1,170.7 C41.2,172.8 44.3,176.2 46.4,178.7 C47.9,180.5 49.9,183.5 47.1,190.6 C43.7,199.3 31.6,210.7 28,210.7 C24.4,210.7 12.3,199.3 8.9,190.6 C6.1,183.5 8.2,180.5 9.6,178.7 C11.6,176.2 14.7,172.8 16.9,170.7 C18.4,169.2 19.4,168.7 21,168.9 C23,169.2 25.3,170.9 28.1,170.9 L28.1,170.9 Z"></path>
            </g>
        </g>
    </g>
</svg>