<?xml version="1.0" encoding="UTF-8"?>
<svg width="204px" height="74px" viewBox="0 0 204 74" version="1.1" xmlns="http://www.w3.org/2000/svg" xmlns:xlink="http://www.w3.org/1999/xlink">
    <g id="Page-1" stroke="none" stroke-width="1" fill="none" fill-rule="evenodd">
        <g id="Artboard" fill-rule="nonzero">
            <g id="logotype-skaut">
                <g id="Group-39">
                    <path d="M32.9085,32.1783 C33.0765,31.7983 33.6185,31.5433 34.0785,31.5433 C34.7295,31.5433 34.8795,31.9133 34.8395,32.1973 C34.7935,32.5363 34.4975,32.7633 34.0945,32.8233 C34.0585,32.8293 34.0205,32.8313 33.9825,32.8313 C33.6985,32.8313 33.4075,32.6903 33.4835,32.5903 C33.5205,32.5413 33.6175,32.4133 33.5435,32.2593 C33.4865,32.1413 33.3595,32.0883 33.2215,32.0883 C33.1135,32.0883 33.0005,32.1203 32.9085,32.1783 M40.9265,27.8943 C40.2575,27.8943 39.6795,28.3753 38.9915,29.2023 C38.8045,29.4253 38.6045,29.6173 38.4565,29.6173 C38.3635,29.6173 38.2915,29.5393 38.2575,29.3453 C38.2015,29.0213 38.4475,28.3643 38.1695,28.3643 C38.1635,28.3643 38.1565,28.3643 38.1495,28.3653 C37.4325,28.4403 36.9665,28.8513 36.5605,29.3843 C36.2475,29.7963 36.2245,30.0123 35.8605,30.0233 C35.1355,30.0563 34.7975,30.0863 34.2385,30.2203 C33.6775,30.3523 33.2035,30.5623 32.8675,30.7693 C32.4465,31.0323 32.1305,31.4263 31.1415,31.4343 C29.5585,31.4483 27.5485,31.4843 26.7685,31.6333 C25.9665,31.7853 25.8535,32.2943 26.2785,33.0063 C26.7775,33.8383 26.9255,35.6273 27.9335,35.8823 C28.1935,36.4353 28.3725,36.8603 28.6215,36.8603 C28.6285,36.8603 28.6355,36.8593 28.6435,36.8593 C28.7325,36.8403 28.8235,36.5643 28.8895,36.3093 C29.0285,35.7513 29.5695,35.7273 29.9265,35.7093 C30.1045,35.6993 30.2745,35.6943 30.4375,35.6943 C31.1005,35.6943 31.6465,35.7823 32.1345,36.0563 C32.5515,36.2913 32.7555,36.7093 32.6765,36.8713 C32.6335,36.9603 32.5745,36.9843 32.4695,36.9843 C32.4065,36.9843 32.3275,36.9753 32.2245,36.9673 C32.1215,36.9583 31.9945,36.9493 31.8375,36.9493 C31.5615,36.9493 31.1915,36.9763 30.6905,37.0783 C29.8175,37.2543 29.2815,37.7233 28.1565,37.7233 C26.4785,37.7233 25.6565,36.5873 25.3615,35.5723 C25.2605,35.2263 25.1785,34.8973 24.9475,34.8973 C24.8395,34.8973 24.6975,34.9703 24.5055,35.1493 C23.7365,35.8693 23.6795,37.2383 24.4755,38.0743 C25.0025,38.6293 25.7415,38.9173 26.6315,38.9993 C26.8085,39.0133 27.1005,39.0243 27.4055,39.0243 C27.5695,39.0243 27.7375,39.0213 27.8935,39.0133 C27.8935,39.0133 27.7665,39.3613 27.9575,39.6693 C28.0905,39.8823 28.4075,40.0623 28.8935,40.0623 C29.1095,40.0623 29.3575,40.0273 29.6385,39.9433 C30.4185,39.7113 31.1335,39.4883 31.7745,39.4883 C32.2095,39.4883 32.6105,39.5913 32.9745,39.8633 C33.1385,39.9853 33.3405,40.2113 33.3405,40.3573 C33.3405,40.6253 32.3585,41.3923 29.6035,42.1333 C26.2165,43.0453 25.4215,45.3133 25.7655,46.5533 L25.9545,46.7823 L25.9575,46.7823 C26.0575,46.7823 26.5695,46.4823 26.8635,46.4293 C26.9235,46.4193 26.9745,46.4143 27.0175,46.4143 C27.3925,46.4143 27.1895,46.7993 27.1245,47.2723 C26.8625,49.1533 29.5355,51.5243 31.8955,53.1593 C33.2025,54.0633 33.9055,54.3723 34.2355,54.3723 C34.5725,54.3723 35.2715,54.1223 36.5745,53.1593 C40.2545,50.4393 42.6935,46.6323 42.2985,44.6043 C42.0735,43.4533 41.4745,42.7523 41.7605,42.5673 C41.8155,42.5323 41.8795,42.5183 41.9505,42.5183 C42.1125,42.5183 42.3075,42.5933 42.4835,42.6693 C42.6605,42.7453 42.8195,42.8203 42.9095,42.8203 C42.9295,42.8203 42.9465,42.8173 42.9595,42.8093 C43.3285,42.5793 43.4975,40.4493 42.8165,38.2213 C42.1695,36.1053 41.4435,35.2603 41.0105,33.5283 C40.9535,33.3013 40.8165,32.6153 40.8755,32.4333 C40.9335,32.2503 41.0765,31.8843 41.1805,31.5803 C41.7205,30.0143 41.4725,28.3733 41.2995,28.0013 L41.1435,27.9113 C41.0705,27.9003 40.9975,27.8943 40.9265,27.8943" id="Fill-3" fill="#2B4375"></path>
                    <path d="M3.1839,36.6252 C2.8319,36.6252 2.2429,37.3522 1.7309,38.4242 C1.1299,39.6832 0.8009,40.8752 0.8009,43.1402 C0.8009,48.8842 5.5449,54.7372 12.3509,54.7372 C12.6009,54.7372 12.8549,54.7292 13.1109,54.7132 C19.4059,54.3152 22.9819,49.5482 22.9819,44.6892 C22.9819,42.3962 21.6649,39.8092 18.9529,39.8092 C18.8959,39.8092 18.8389,39.8112 18.7809,39.8132 C15.5719,39.9392 15.0619,42.0402 15.0619,43.2002 C15.0619,46.0622 16.2919,47.5882 16.1319,48.3032 C16.0239,48.7862 14.8529,49.0232 13.8469,49.0232 C13.8119,49.0232 13.7769,49.0222 13.7429,49.0222 C10.2379,48.9652 5.0889,44.7282 3.6919,37.4302 C3.6359,37.1322 3.5319,36.6262 3.1849,36.6252 L3.1849,36.6252" id="Fill-5" fill="#2F5790"></path>
                    <path d="M12.5454,15.248 C5.3514,15.248 0.8004,20.719 0.8004,26.809 C0.8004,28.403 1.2454,30.463 1.7354,31.621 C2.1904,32.695 2.6934,33.65 3.0934,33.65 C3.5544,33.65 3.5914,33 3.6754,32.375 C4.2514,28.112 6.6564,24.944 9.3274,23.426 C11.4284,22.233 13.5204,21.851 15.4554,21.851 C17.4414,21.851 19.2634,22.253 20.7614,22.591 C20.8904,22.62 21.0134,22.636 21.1244,22.636 C21.3914,22.636 21.5974,22.549 21.6934,22.36 C21.8054,22.14 21.7264,21.89 21.3794,21.525 C19.9884,20.06 16.7884,16.877 16.3874,16.542 C15.4134,15.73 13.8044,15.248 12.5454,15.248" id="Fill-7" fill="#3E6FA5"></path>
                    <path d="M41.955,0.515 C41.607,0.515 41.27,0.531 40.951,0.558 C38.743,0.748 37.534,1.269 36.709,1.652 C36.267,1.857 35.901,2.111 35.901,2.357 C35.901,2.579 36.376,2.847 36.596,3.014 C37.474,3.681 38.16,4.231 40.069,6.229 C41.539,7.769 43.42,10.419 44.206,12.235 C44.817,13.646 45.127,16.654 44.822,19.712 C44.777,20.173 44.822,20.476 45.024,20.63 C45.085,20.676 45.155,20.695 45.229,20.695 C45.476,20.695 45.768,20.482 45.915,20.349 C46.309,19.995 49.304,17.015 50.702,15.487 C51.647,14.457 51.964,12.67 51.964,10.684 C51.964,9.015 51.741,6.549 50.146,4.511 C47.664,1.338 44.474,0.515 41.955,0.515" id="Fill-9" fill="#3E6FA5"></path>
                    <path d="M26.5149,0.515 C23.9959,0.515 20.8059,1.338 18.3239,4.511 C16.7289,6.549 16.5059,9.015 16.5059,10.684 C16.5059,12.67 16.8229,14.457 17.7679,15.487 C19.1659,17.015 22.1609,19.995 22.5549,20.349 C22.7019,20.482 22.9939,20.695 23.2409,20.695 C23.3149,20.695 23.3849,20.676 23.4459,20.63 C23.6479,20.476 23.6929,20.173 23.6479,19.712 C23.3429,16.654 23.6529,13.646 24.2639,12.235 C25.0499,10.419 26.9309,7.769 28.4009,6.229 C30.3089,4.231 30.9959,3.681 31.8739,3.014 C32.0939,2.847 32.5689,2.579 32.5689,2.357 C32.5689,2.111 32.2029,1.857 31.7609,1.652 C30.9359,1.269 29.7269,0.748 27.5189,0.558 C27.1989,0.531 26.8629,0.515 26.5149,0.515" id="Fill-11" fill="#2F5790"></path>
                    <path d="M15.3986,23.5151 C9.9756,23.5151 5.4556,27.3371 5.1516,34.1961 C4.8586,40.8091 9.8636,46.7711 13.1096,47.4211 C13.3146,47.4621 13.4856,47.4811 13.6266,47.4811 C14.2846,47.4811 14.2766,47.0531 14.0546,46.4111 C13.6836,45.3381 12.8466,42.5701 14.2106,40.4331 C15.2666,38.7781 16.7716,38.3521 17.9306,38.2441 C18.2686,38.2131 18.7206,38.1871 18.9386,38.1611 C19.7926,38.0601 20.0256,37.8131 20.0256,37.2351 L20.0256,32.4411 C20.0256,31.2231 20.2566,30.8761 20.8466,30.2871 C21.5066,29.6271 23.1486,27.9841 23.9716,27.1621 C24.6006,26.5331 24.4546,26.0381 24.0116,25.6961 C22.6166,24.6171 18.5966,23.5151 15.3986,23.5151" id="Fill-13" fill="#F0A92C"></path>
                    <path d="M65.2859,36.6252 L65.2849,36.6252 C64.9379,36.6262 64.8339,37.1322 64.7779,37.4302 C63.3809,44.7282 58.2329,48.9652 54.7279,49.0222 C54.6929,49.0222 54.6579,49.0232 54.6239,49.0232 C53.6169,49.0232 52.4459,48.7862 52.3379,48.3032 C52.1789,47.5882 53.4079,46.0622 53.4079,43.2002 C53.4079,42.0402 52.8979,39.9392 49.6889,39.8132 C49.6309,39.8112 49.5739,39.8092 49.5169,39.8092 C46.8049,39.8092 45.4879,42.3962 45.4879,44.6892 C45.4879,49.5482 49.0649,54.3152 55.3589,54.7132 C55.6149,54.7292 55.8689,54.7372 56.1189,54.7372 C62.9249,54.7372 67.6699,48.8842 67.6699,43.1402 C67.6699,40.8752 67.3409,39.6832 66.7389,38.4242 C66.2269,37.3522 65.6379,36.6252 65.2859,36.6252" id="Fill-15" fill="#3E6FA5"></path>
                    <path d="M55.9243,15.248 C54.6653,15.248 53.0563,15.73 52.0823,16.542 C51.6813,16.877 48.4813,20.06 47.0903,21.525 C46.7433,21.89 46.6643,22.14 46.7763,22.36 C46.8733,22.549 47.0783,22.636 47.3453,22.636 C47.4573,22.636 47.5793,22.62 47.7083,22.591 C49.2073,22.253 51.0283,21.851 53.0143,21.851 C54.9493,21.851 57.0413,22.233 59.1433,23.426 C61.8143,24.944 64.2193,28.112 64.7943,32.375 C64.8783,33 64.9153,33.65 65.3763,33.65 C65.7763,33.65 66.2793,32.695 66.7343,31.621 C67.2243,30.463 67.6703,28.403 67.6703,26.809 C67.6703,20.719 63.1183,15.248 55.9243,15.248" id="Fill-17" fill="#2F5790"></path>
                    <path d="M53.0714,23.5151 C49.8734,23.5151 45.8534,24.6171 44.4584,25.6961 C44.0154,26.0381 43.8694,26.5331 44.4984,27.1621 C45.3214,27.9841 46.9634,29.6271 47.6234,30.2871 C48.2124,30.8761 48.4444,31.2231 48.4444,32.4411 L48.4444,37.2351 C48.4444,37.8131 48.6774,38.0601 49.5314,38.1611 C49.7494,38.1871 50.2014,38.2131 50.5394,38.2441 C51.6984,38.3521 53.2034,38.7781 54.2594,40.4331 C55.6224,42.5701 54.7864,45.3381 54.4154,46.4111 C54.1934,47.0531 54.1854,47.4811 54.8434,47.4811 C54.9844,47.4811 55.1554,47.4621 55.3604,47.4211 C58.6064,46.7711 63.6114,40.8091 63.3184,34.1961 C63.0144,27.3371 58.4934,23.5151 53.0714,23.5151" id="Fill-19" fill="#F0A92C"></path>
                    <path d="M44.7126,53.0182 C44.3546,53.0182 44.0136,53.1952 43.6966,53.5202 C42.3456,54.9022 41.4726,55.7212 39.8546,56.9402 C39.0356,57.5562 39.0116,58.3622 39.5396,59.0742 C40.0456,59.7572 40.9166,60.5812 41.7056,61.3202 C42.6296,62.1862 44.3116,62.8102 46.1396,62.8102 C46.5916,62.8102 47.0536,62.7722 47.5136,62.6892 C51.0966,62.0502 52.2796,59.1852 52.2036,56.7112 C52.1856,56.0902 51.9276,55.7282 51.6586,55.5972 C51.4636,55.5022 51.2856,55.4742 51.1026,55.4742 C50.9746,55.4742 50.8446,55.4882 50.7026,55.5012 C50.5616,55.5142 50.4096,55.5272 50.2376,55.5272 C50.1556,55.5272 50.0686,55.5242 49.9766,55.5172 C48.1046,55.3622 46.8236,54.5412 45.7826,53.5362 C45.4156,53.1822 45.0566,53.0182 44.7126,53.0182" id="Fill-21" fill="#F0A92C"></path>
                    <path d="M23.7573,53.0182 C23.4133,53.0182 23.0543,53.1822 22.6873,53.5362 C21.6463,54.5412 20.3653,55.3622 18.4933,55.5172 C18.4013,55.5242 18.3143,55.5272 18.2323,55.5272 C18.0603,55.5272 17.9083,55.5142 17.7673,55.5012 C17.6253,55.4882 17.4953,55.4742 17.3673,55.4742 C17.1843,55.4742 17.0063,55.5022 16.8123,55.5972 C16.5423,55.7282 16.2843,56.0902 16.2663,56.7112 C16.1903,59.1852 17.3733,62.0502 20.9563,62.6892 C21.4173,62.7722 21.8783,62.8102 22.3303,62.8102 C24.1573,62.8102 25.8403,62.1862 26.7643,61.3202 C27.5533,60.5812 28.4243,59.7572 28.9303,59.0742 C29.4583,58.3622 29.4343,57.5562 28.6153,56.9402 C26.9983,55.7212 26.1243,54.9022 24.7733,53.5202 C24.4563,53.1952 24.1153,53.0182 23.7573,53.0182" id="Fill-23" fill="#F0A92C"></path>
                    <path d="M34.2349,3.7624 C33.2159,3.7624 31.5439,5.3244 29.6269,7.3384 C27.7439,9.3154 25.8119,12.2264 25.5029,13.7654 C25.1939,15.3044 24.7769,18.5194 25.8909,23.1734 C26.2069,24.4914 26.9359,24.6174 27.7599,24.6174 L40.7089,24.6174 C41.5329,24.6174 42.2629,24.4914 42.5779,23.1734 C43.6919,18.5194 43.2749,15.3044 42.9659,13.7654 C42.6589,12.2264 40.7259,9.3154 38.8429,7.3384 C36.9249,5.3244 35.2519,3.7624 34.2349,3.7624" id="Fill-25" fill="#ED952D"></path>
                    <path d="M36.723,59.122 C36.654,59.122 36.582,59.127 36.505,59.137 C35.881,59.218 35.158,59.781 34.235,59.781 C33.312,59.781 32.589,59.218 31.964,59.137 C31.888,59.127 31.816,59.122 31.747,59.122 C31.335,59.122 31.026,59.302 30.611,59.717 C29.91,60.42 28.899,61.519 28.228,62.343 C27.744,62.937 27.087,63.928 27.989,66.239 C29.096,69.078 33.071,72.82 34.235,72.82 C35.399,72.82 39.374,69.078 40.481,66.239 C41.383,63.928 40.726,62.937 40.242,62.343 C39.57,61.519 38.56,60.42 37.858,59.717 C37.444,59.302 37.135,59.122 36.723,59.122" id="Fill-27" fill="#ED952D"></path>
                </g>
                <g id="Group-49" transform="translate(82.000000, 45.000000)" fill="#324986">
                    <path d="M12.368,17.7188 L9.584,17.7188 L5.168,11.5748 L5.168,17.7188 L3.008,17.7188 L3.008,1.9028 C2.3525,1.7918 1.6565,1.7123 0.92,1.6628 L0.92,0.3667 C2.4245,0.1928 3.8405,0.1358 5.168,0.1988 L5.168,11.0227 L9.368,5.7908 L12.008,5.7908 L7.424,11.2388 L12.368,17.7188 Z" id="Fill-40"></path>
                    <path d="M21.584,5.5988 L21.488,7.7108 C20.192,7.4722 19.229,7.7963 18.596,8.6843 C17.9645,9.5723 17.648,10.9838 17.648,12.9188 L17.648,17.7188 L15.488,17.7188 L15.488,7.4947 C14.8325,7.3837 14.1365,7.3042 13.4,7.2548 L13.4,5.9588 C14.9045,5.7847 16.2965,5.7278 17.576,5.7908 C17.576,6.7837 17.489,7.7287 17.312,8.6228 L17.36,8.6228 C17.648,7.6477 18.137,6.8693 18.824,6.2843 C19.5125,5.7007 20.432,5.4728 21.584,5.5988 L21.584,5.5988 Z" id="Fill-41"></path>
                    <path d="M34.592,17.5507 C33.0725,17.7278 31.697,17.7833 30.464,17.7188 C30.464,16.5848 30.5045,15.7928 30.584,15.3427 L30.536,15.3427 C30.233,16.0958 29.72,16.7167 29,17.2043 C28.28,17.6932 27.44,17.9348 26.48,17.9348 C25.4885,17.9348 24.689,17.6528 24.08,17.0842 C23.4725,16.5173 23.168,15.7522 23.168,14.7908 C23.168,13.4963 23.804,12.4763 25.076,11.7323 C26.348,10.9882 28.1045,10.6163 30.344,10.6148 L30.344,9.8228 C30.344,8.9602 30.1445,8.3212 29.744,7.9042 C29.345,7.4888 28.673,7.2803 27.728,7.2788 C26.4485,7.2803 25.2725,7.5757 24.2,8.1668 L23.84,6.3667 C25.2485,5.8238 26.648,5.5523 28.04,5.5508 C29.6885,5.5523 30.845,5.8973 31.508,6.5842 C32.1725,7.2727 32.504,8.2567 32.504,9.5347 L32.504,16.0148 C33.161,16.1288 33.857,16.2082 34.592,16.2548 L34.592,17.5507 Z M30.344,12.4387 L30.344,12.1268 C26.984,12.1283 25.304,12.8963 25.304,14.4308 C25.304,14.9602 25.469,15.3923 25.796,15.7283 C26.1245,16.0643 26.561,16.2323 27.104,16.2307 C28.0325,16.2323 28.805,15.8482 29.42,15.0803 C30.0365,14.3123 30.344,13.4318 30.344,12.4387 L30.344,12.4387 Z" id="Fill-42"></path>
                    <path d="M40.232,2.0228 C40.232,2.4083 40.097,2.7368 39.824,3.0083 C39.5525,3.2813 39.2165,3.4162 38.816,3.4162 C38.417,3.4162 38.0765,3.2843 37.796,3.0203 C37.517,2.7563 37.376,2.4247 37.376,2.0243 C37.376,1.6252 37.517,1.2893 37.796,1.0163 C38.0765,0.7448 38.417,0.6083 38.816,0.6083 C39.2165,0.6083 39.5525,0.7448 39.824,1.0163 C40.097,1.2893 40.232,1.6238 40.232,2.0228 L40.232,2.0228 Z M39.896,19.0388 C39.896,20.6872 39.5885,21.8947 38.972,22.6627 C38.357,23.4307 37.289,23.8147 35.768,23.8147 C35.144,23.8147 34.5935,23.7427 34.112,23.5987 L34.304,21.7027 C34.8335,21.8947 35.336,21.9907 35.816,21.9907 C36.569,21.9907 37.076,21.7987 37.34,21.4147 C37.604,21.0307 37.736,20.3032 37.736,19.2307 L37.736,7.4947 C37.0805,7.3837 36.3845,7.3042 35.648,7.2548 L35.648,5.9588 C37.1525,5.7847 38.5685,5.7278 39.896,5.7908 L39.896,19.0388 Z" id="Fill-43"></path>
                    <path d="M59.192,6.1747 C59.192,7.7603 58.6085,9.0562 57.44,10.0643 C56.273,11.0723 54.7685,11.5763 52.928,11.5748 C52.352,11.5763 51.92,11.5598 51.632,11.5268 L51.632,17.7188 L49.424,17.7188 L49.424,1.5188 C51.0245,1.4558 52.352,1.4243 53.408,1.4227 C55.2485,1.4243 56.672,1.8533 57.68,2.7082 C58.688,3.5648 59.192,4.7198 59.192,6.1747 L59.192,6.1747 Z M56.888,6.3908 C56.888,4.2968 55.649,3.2483 53.168,3.2468 C52.448,3.2483 51.9365,3.2557 51.632,3.2707 L51.632,9.6548 C52.001,9.7208 52.4405,9.7522 52.952,9.7508 C54.152,9.7358 55.109,9.4283 55.82,8.8283 C56.5325,8.2283 56.888,7.4168 56.888,6.3908 L56.888,6.3908 Z" id="Fill-44"></path>
                    <path d="M68.72,5.5988 L68.624,7.7108 C67.328,7.4722 66.365,7.7963 65.732,8.6843 C65.1005,9.5723 64.784,10.9838 64.784,12.9188 L64.784,17.7188 L62.624,17.7188 L62.624,7.4947 C61.9685,7.3837 61.2725,7.3042 60.536,7.2548 L60.536,5.9588 C62.0405,5.7847 63.4325,5.7278 64.712,5.7908 C64.712,6.7837 64.625,7.7287 64.448,8.6228 L64.496,8.6228 C64.784,7.6477 65.273,6.8693 65.96,6.2843 C66.6485,5.7007 67.568,5.4728 68.72,5.5988 L68.72,5.5988 Z" id="Fill-45"></path>
                    <path d="M81.728,17.5507 C80.2085,17.7278 78.833,17.7833 77.6,17.7188 C77.6,16.5848 77.6405,15.7928 77.72,15.3427 L77.672,15.3427 C77.369,16.0958 76.856,16.7167 76.136,17.2043 C75.416,17.6932 74.576,17.9348 73.616,17.9348 C72.6245,17.9348 71.825,17.6528 71.216,17.0842 C70.6085,16.5173 70.304,15.7522 70.304,14.7908 C70.304,13.4963 70.94,12.4763 72.212,11.7323 C73.484,10.9882 75.2405,10.6163 77.48,10.6148 L77.48,9.8228 C77.48,8.9602 77.2805,8.3212 76.88,7.9042 C76.481,7.4888 75.809,7.2803 74.864,7.2788 C73.5845,7.2803 72.4085,7.5757 71.336,8.1668 L70.976,6.3667 C72.3845,5.8238 73.784,5.5523 75.176,5.5508 C76.8245,5.5523 77.981,5.8973 78.644,6.5842 C79.3085,7.2727 79.64,8.2567 79.64,9.5347 L79.64,16.0148 C80.297,16.1288 80.993,16.2082 81.728,16.2548 L81.728,17.5507 Z M77.48,12.4387 L77.48,12.1268 C74.12,12.1283 72.44,12.8963 72.44,14.4308 C72.44,14.9602 72.605,15.3923 72.932,15.7283 C73.2605,16.0643 73.697,16.2323 74.24,16.2307 C75.1685,16.2323 75.941,15.8482 76.556,15.0803 C77.1725,14.3123 77.48,13.4318 77.48,12.4387 L77.48,12.4387 Z" id="Fill-46"></path>
                    <path d="M94.088,17.7188 L91.928,17.7188 L91.928,10.0388 C91.928,9.1447 91.7765,8.4728 91.472,8.0243 C91.169,7.5773 90.6485,7.3523 89.912,7.3508 C88.937,7.3523 88.124,7.7963 87.476,8.6843 C86.828,9.5723 86.504,10.6808 86.504,12.0067 L86.504,17.7188 L84.344,17.7188 L84.344,1.9028 C83.6885,1.7918 82.9925,1.7123 82.256,1.6628 L82.256,0.3667 C83.7605,0.1928 85.1765,0.1358 86.504,0.1988 L86.504,5.8628 C86.504,6.8723 86.441,7.6643 86.312,8.2388 L86.36,8.2628 C86.7125,7.4318 87.248,6.7763 87.968,6.2963 C88.688,5.8163 89.537,5.5763 90.512,5.5748 C92.897,5.5763 94.088,6.8482 94.088,9.3908 L94.088,17.7188 Z" id="Fill-47"></path>
                    <path d="M108.656,17.5507 C107.1365,17.7278 105.761,17.7833 104.528,17.7188 C104.528,16.5848 104.5685,15.7928 104.648,15.3427 L104.6,15.3427 C104.297,16.0958 103.784,16.7167 103.064,17.2043 C102.344,17.6932 101.504,17.9348 100.544,17.9348 C99.5525,17.9348 98.753,17.6528 98.144,17.0842 C97.5365,16.5173 97.232,15.7522 97.232,14.7908 C97.232,13.4963 97.868,12.4763 99.14,11.7323 C100.412,10.9882 102.1685,10.6163 104.408,10.6148 L104.408,9.8228 C104.408,8.9602 104.2085,8.3212 103.808,7.9042 C103.409,7.4888 102.737,7.2803 101.792,7.2788 C100.5125,7.2803 99.3365,7.5757 98.264,8.1668 L97.904,6.3667 C99.3125,5.8238 100.712,5.5523 102.104,5.5508 C103.7525,5.5523 104.909,5.8973 105.572,6.5842 C106.2365,7.2727 106.568,8.2567 106.568,9.5347 L106.568,16.0148 C107.225,16.1288 107.921,16.2082 108.656,16.2548 L108.656,17.5507 Z M104.408,12.4387 L104.408,12.1268 C101.048,12.1283 99.368,12.8963 99.368,14.4308 C99.368,14.9602 99.533,15.3923 99.86,15.7283 C100.1885,16.0643 100.625,16.2323 101.168,16.2307 C102.0965,16.2323 102.869,15.8482 103.484,15.0803 C104.1005,14.3123 104.408,13.4318 104.408,12.4387 L104.408,12.4387 Z" id="Fill-48"></path>
                </g>
                <path d="M96.365,16.33 C96.75,16.4 96.96,16.365 97.03,15.945 L97.59,12.2 C97.625,11.92 97.485,11.675 97.17,11.605 C95.945,11.29 94.16,11.15 93.04,11.15 C86.355,11.15 82.96,13.495 82.96,18.255 C82.96,25.78 93.215,24.94 93.215,29 C93.215,30.785 91.185,31.52 88.595,31.52 C86.95,31.52 85.34,31.17 83.52,30.295 C83.03,30.05 82.785,30.225 82.68,30.575 C82.575,30.995 82.575,31.31 82.575,31.73 C82.575,33.9 83.835,36.35 88.805,36.35 C94.475,36.35 98.885,33.9 98.885,28.79 C98.885,21.09 88.63,22.245 88.63,18.22 C88.63,17.38 89.19,15.98 92.725,15.98 C93.705,15.98 95.14,16.085 96.365,16.33 Z M101.51,11.5 C101.09,11.5 100.81,11.675 100.845,12.095 C101.055,14.685 101.895,15.84 103.75,16.12 L103.75,35.475 C103.75,35.755 103.995,36 104.275,36 L108.72,36 C109,36 109.245,35.755 109.245,35.475 L109.245,23.68 L116.035,33.34 C117.505,35.44 118.905,36.525 121.53,36.525 C122.86,36.525 123.84,35.965 124.365,35.545 C124.575,35.37 124.68,35.125 124.365,34.845 C122.72,33.305 118.52,27.355 115.37,23.295 C115.265,23.155 115.265,23.015 115.37,22.875 L123.245,12.48 C123.63,11.955 123.315,11.5 122.685,11.5 L118.38,11.5 C117.715,11.5 117.225,11.745 116.91,12.2 L109.245,22.56 L109.245,14.195 C109.245,12.55 108.02,11.325 106.375,11.325 C104.66,11.325 103.225,11.5 101.51,11.5 Z M131.925,11.5 C134.83,11.5 137.455,11.325 140.36,11.325 C143.86,11.325 144.7,12.515 145.435,14.545 L151.735,32.22 C152.4,34.04 152.925,34.845 153.275,35.335 C153.38,35.475 153.38,35.685 153.24,35.79 C152.785,36.14 151.91,36.525 150.475,36.525 C148.06,36.525 146.625,35.65 145.925,33.585 L145.155,31.275 C145.05,30.925 144.875,30.82 144.525,30.82 L135.32,30.82 C135.005,30.82 134.865,30.96 134.76,31.275 L133.325,35.51 C133.22,35.79 133.045,36 132.625,36 L127.97,36 C127.55,36 127.27,35.615 127.41,35.195 L134.165,16.12 C132.31,15.84 131.47,14.685 131.26,12.095 C131.225,11.675 131.505,11.5 131.925,11.5 Z M143.335,25.955 C143.615,25.955 143.685,25.815 143.615,25.535 L140.85,16.75 C140.675,16.19 140.43,15.945 139.975,15.945 L139.52,15.945 L136.44,25.57 C136.37,25.815 136.475,25.955 136.755,25.955 L143.335,25.955 Z M156.705,16.12 L156.705,27.635 C156.705,33.48 160.17,36.315 166.855,36.315 C173.26,36.315 177.005,33.2 177.005,27.635 L177.005,12.025 C177.005,11.745 176.76,11.5 176.48,11.5 L172.035,11.5 C171.755,11.5 171.51,11.745 171.51,12.025 L171.51,26.48 C171.51,29.77 169.83,31.485 166.855,31.485 C163.88,31.485 162.2,29.77 162.2,26.48 L162.2,14.23 C162.2,12.27 161.01,11.325 159.295,11.325 C157.895,11.325 156.32,11.465 154.465,11.5 C154.045,11.5 153.765,11.675 153.8,12.095 C154.01,14.685 154.85,15.84 156.705,16.12 Z M193.595,16.365 L199.195,16.365 C199.475,16.365 199.72,16.12 199.72,15.84 L199.72,12.025 C199.72,11.745 199.475,11.5 199.195,11.5 L181.8,11.5 C181.52,11.5 181.275,11.745 181.275,12.025 L181.275,15.84 C181.275,16.12 181.52,16.365 181.8,16.365 L187.4,16.365 C187.61,16.365 187.75,16.505 187.75,16.715 L187.75,29.98 C187.75,34.565 189.115,36.35 192.51,36.35 C195.38,36.35 197.025,34.355 197.305,32.64 C197.41,32.01 197.235,31.695 196.71,31.765 C196.325,31.8 195.66,31.8 195.275,31.73 C193.805,31.52 193.245,30.89 193.245,28.3 L193.245,16.715 C193.245,16.505 193.385,16.365 193.595,16.365 Z" id="skaut" fill="#324986"></path>
            </g>
        </g>
    </g>
</svg>
