<svg width="346px" height="69px" viewBox="119 231 346 69" version="1.1" xmlns="http://www.w3.org/2000/svg" xmlns:xlink="http://www.w3.org/1999/xlink">
    <path d="M120.5,285 C121.7,284.7 122.8,284.4 124,284 C124.2,283.9 124.6,283.3 124.5,283.1 C124,281.9 124.9,281.3 125.4,280.3 C126.1,279.2 126.2,277.7 126.6,276.4 C126.7,275.9 127,275.4 127.1,274.9 C127.3,273.9 127.6,272.8 127.8,271.8 C127.9,271.3 128.1,270.7 128.2,270.2 C129.1,272.9 129.6,275.4 130.1,278 C131.4,276.1 131.3,273.8 132.1,271.6 C132.3,272.9 132.5,274.1 132.7,275.4 C132.8,276 132.6,276.9 132.9,277.2 C134.6,278.4 134.3,280.4 135.2,281.9 C135.5,282.5 135.5,283.3 135.7,284.4 C137.8,283 140.6,284.4 142.6,282.9 C143.7,283 144.9,283.2 146.3,283.4 C146,282.7 145.9,282.4 145.7,281.9 C146.4,281.7 147.2,281.2 147.3,282.6 C147.3,282.8 148.2,283 148.6,283 C152.3,282.6 156,281.9 159.7,281.7 C164.5,281.4 169.3,281.5 174.1,281.4 C174.8,281.4 175.6,281.7 175.8,280.5 C175.8,280.4 177.3,280.3 177.4,280.5 C177.8,281.7 178.7,281.4 179.5,281.4 L188.7,281.4 C189.4,281.4 190.2,281 190.9,280.8 C193.4,282 195.3,281 197.2,280.9 C197.9,280.8 198.6,281.1 199.3,281.2 C199.7,276.1 200,271.1 200.5,266.2 C200.8,263.3 201.2,260.4 202.2,257.7 C203.9,253.2 203.9,248.6 204.7,244 C205.3,245.6 205.6,247.5 205.8,249.3 C206.1,251.4 206,253.7 206.8,255.5 C207.6,257.3 208.1,259.2 208.9,261.2 C210.8,260 211.2,258 211.6,256.2 C212.2,252.9 212.5,249.5 212.9,246.1 C214.5,252.7 215.8,259.8 217.2,267.1 C218.3,267 219,266.9 219.7,266.8 C220.3,261.9 220.8,257.1 221.4,252.3 C222.4,253.9 222.8,255.5 223.2,257.6 C223.7,256.6 224.5,255.6 224.3,255.1 C223.6,253.5 224.9,252.8 225.3,251.6 C225.5,251.1 225.9,250.7 225.9,250.3 C225.7,247.3 226.9,244.6 227.2,241.7 C227.5,238.8 227.9,235.9 228.4,232.7 C229,234.4 228.9,235.4 229,236.3 C229.2,238.5 229.5,240.7 229.9,243 C230,243.8 230.5,244.5 230.6,245.2 C230.8,246.8 230.8,248.4 231.1,250 C231.2,250.5 231.5,251.1 231.8,251.5 C232.4,252.4 233.1,253.1 232.6,254.4 C232.4,255.1 233.1,256.1 233.5,257.3 C234,255.4 234.4,253.9 234.7,252.5 C235.7,256.6 236.1,260.6 236.5,264.4 C236.9,264.3 237.5,264.1 238,264.1 C239.7,264.3 241.4,264.6 243,264.9 C243.7,258.6 244.4,252.4 245.1,246.2 C246,252.6 246.6,258.9 247.3,265.6 C248.8,265.3 250.3,264.4 251.6,264.7 C253.4,265.2 255,264.9 256.7,264.8 C262.7,264.6 268.7,264.2 274.8,263.9 C275.3,263.9 276.1,264.5 276.3,265 C277.4,267.3 278.4,269.8 279.6,272.3 C279.7,271.9 279.8,271.6 279.9,271.3 C280.1,272 280.1,272.8 280.1,273.8 C280.6,272.7 281,271.9 281.5,270.8 C282.5,273.3 280.7,276.2 283.4,278.3 C283.6,277.2 283.8,276.4 284,275.3 C284.3,276.7 284.5,277.8 284.7,278.9 C285.1,277.6 285.3,276.3 285.4,275 C286,276.4 286.3,277.8 286.6,279.2 C286.7,278.7 286.7,278.1 286.8,277.4 C287.6,277.5 287.7,277.2 287.9,276.6 C288,277.9 288.1,278.7 288.2,279.6 C288.6,278.4 288.7,277.2 288.9,276 C289.4,277.2 289.4,278.4 289.5,279.8 C293.1,279.6 296.7,279.5 300.2,279.3 C301.4,281.6 302.3,281.7 305.7,281.4 C310.5,281 315.3,280.9 320.1,280.8 C320.5,280.8 320.9,281.3 321.2,281.6 C322.7,283.7 324.2,285.9 325.8,288 C326.3,288.7 327.2,289.2 328.1,289.6 C328.6,289.8 329.6,289.7 329.8,289.4 C330.5,288.1 330.9,288.4 331.5,289.4 C331.5,289.5 332.4,289.2 332.8,289 C333.2,288.8 333.5,288.4 334,288 C334.2,287.5 334.4,286.6 334.7,285.8 C335.6,286.7 335.8,287.6 336.1,288.6 L340.9,288.6 C344.8,288 348.5,288.6 352.2,288.2 C352.7,288.1 353.3,287.4 353.5,286.9 C353.8,285.9 353.9,284.8 353.8,283.8 C353.6,281.3 354.1,279.1 355.1,276.8 C356.1,274.4 356.5,271.7 357.2,269.1 C358.1,272.3 359,275.6 359.9,278.8 C361.2,279 361.6,278.4 361.6,277.4 C361.8,275.2 362,272.9 362.4,270.7 C362.9,272.9 363.2,275.1 364,277.2 C365.1,280.2 365.5,283.3 365.4,286.5 C365.4,287.6 365.8,288 366.9,288 C368.3,288.1 369.7,288.4 371.1,288.4 C371.5,288.4 372,288 372.5,287.8 C373.8,289.2 375.2,288.8 376.5,287.8 C378.1,288.8 380.5,288.7 381.7,287.6 C383,288.9 390.6,288.8 391.7,287.6 C392.5,287.9 393.1,288.3 393.7,288.3 C395.1,288.2 396.5,287.9 397.9,287.7 C398.3,287.7 398.7,287.7 399,287.8 C399.4,287.9 399.7,288.2 400.1,288.1 C403.6,287.7 407,288.4 410.5,288.1 C411.1,288 411.7,287.7 412.2,287.5 C413.2,287.7 414.1,288 415,288 C422.6,287.9 430.2,287.7 437.8,287.5 C441.8,287.4 445.7,287.2 449.7,287.2 L463.5,289.6" id="Shape" stroke-linejoin="round"></path>
</svg>