<svg width="209px" height="73px" viewBox="35 43 209 73" version="1.1" xmlns="http://www.w3.org/2000/svg" xmlns:xlink="http://www.w3.org/1999/xlink">
    <g id="Group" stroke="none" stroke-width="1" fill="none" fill-rule="evenodd" transform="translate(35.000000, 43.000000)">
        <path d="M32.9085,32.1783 C33.0765,31.7983 33.6185,31.5433 34.0785,31.5433 C34.7295,31.5433 34.8795,31.9133 34.8395,32.1973 C34.7935,32.5363 34.4975,32.7633 34.0945,32.8233 C34.0585,32.8293 34.0205,32.8313 33.9825,32.8313 C33.6985,32.8313 33.4075,32.6903 33.4835,32.5903 C33.5205,32.5413 33.6175,32.4133 33.5435,32.2593 C33.4865,32.1413 33.3595,32.0883 33.2215,32.0883 C33.1135,32.0883 33.0005,32.1203 32.9085,32.1783 M40.9265,27.8943 C40.2575,27.8943 39.6795,28.3753 38.9915,29.2023 C38.8045,29.4253 38.6045,29.6173 38.4565,29.6173 C38.3635,29.6173 38.2915,29.5393 38.2575,29.3453 C38.2015,29.0213 38.4475,28.3643 38.1695,28.3643 C38.1635,28.3643 38.1565,28.3643 38.1495,28.3653 C37.4325,28.4403 36.9665,28.8513 36.5605,29.3843 C36.2475,29.7963 36.2245,30.0123 35.8605,30.0233 C35.1355,30.0563 34.7975,30.0863 34.2385,30.2203 C33.6775,30.3523 33.2035,30.5623 32.8675,30.7693 C32.4465,31.0323 32.1305,31.4263 31.1415,31.4343 C29.5585,31.4483 27.5485,31.4843 26.7685,31.6333 C25.9665,31.7853 25.8535,32.2943 26.2785,33.0063 C26.7775,33.8383 26.9255,35.6273 27.9335,35.8823 C28.1935,36.4353 28.3725,36.8603 28.6215,36.8603 C28.6285,36.8603 28.6355,36.8593 28.6435,36.8593 C28.7325,36.8403 28.8235,36.5643 28.8895,36.3093 C29.0285,35.7513 29.5695,35.7273 29.9265,35.7093 C30.1045,35.6993 30.2745,35.6943 30.4375,35.6943 C31.1005,35.6943 31.6465,35.7823 32.1345,36.0563 C32.5515,36.2913 32.7555,36.7093 32.6765,36.8713 C32.6335,36.9603 32.5745,36.9843 32.4695,36.9843 C32.4065,36.9843 32.3275,36.9753 32.2245,36.9673 C32.1215,36.9583 31.9945,36.9493 31.8375,36.9493 C31.5615,36.9493 31.1915,36.9763 30.6905,37.0783 C29.8175,37.2543 29.2815,37.7233 28.1565,37.7233 C26.4785,37.7233 25.6565,36.5873 25.3615,35.5723 C25.2605,35.2263 25.1785,34.8973 24.9475,34.8973 C24.8395,34.8973 24.6975,34.9703 24.5055,35.1493 C23.7365,35.8693 23.6795,37.2383 24.4755,38.0743 C25.0025,38.6293 25.7415,38.9173 26.6315,38.9993 C26.8085,39.0133 27.1005,39.0243 27.4055,39.0243 C27.5695,39.0243 27.7375,39.0213 27.8935,39.0133 C27.8935,39.0133 27.7665,39.3613 27.9575,39.6693 C28.0905,39.8823 28.4075,40.0623 28.8935,40.0623 C29.1095,40.0623 29.3575,40.0273 29.6385,39.9433 C30.4185,39.7113 31.1335,39.4883 31.7745,39.4883 C32.2095,39.4883 32.6105,39.5913 32.9745,39.8633 C33.1385,39.9853 33.3405,40.2113 33.3405,40.3573 C33.3405,40.6253 32.3585,41.3923 29.6035,42.1333 C26.2165,43.0453 25.4215,45.3133 25.7655,46.5533 L25.9545,46.7823 L25.9575,46.7823 C26.0575,46.7823 26.5695,46.4823 26.8635,46.4293 C26.9235,46.4193 26.9745,46.4143 27.0175,46.4143 C27.3925,46.4143 27.1895,46.7993 27.1245,47.2723 C26.8625,49.1533 29.5355,51.5243 31.8955,53.1593 C33.2025,54.0633 33.9055,54.3723 34.2355,54.3723 C34.5725,54.3723 35.2715,54.1223 36.5745,53.1593 C40.2545,50.4393 42.6935,46.6323 42.2985,44.6043 C42.0735,43.4533 41.4745,42.7523 41.7605,42.5673 C41.8155,42.5323 41.8795,42.5183 41.9505,42.5183 C42.1125,42.5183 42.3075,42.5933 42.4835,42.6693 C42.6605,42.7453 42.8195,42.8203 42.9095,42.8203 C42.9295,42.8203 42.9465,42.8173 42.9595,42.8093 C43.3285,42.5793 43.4975,40.4493 42.8165,38.2213 C42.1695,36.1053 41.4435,35.2603 41.0105,33.5283 C40.9535,33.3013 40.8165,32.6153 40.8755,32.4333 C40.9335,32.2503 41.0765,31.8843 41.1805,31.5803 C41.7205,30.0143 41.4725,28.3733 41.2995,28.0013 L41.1435,27.9113 C41.0705,27.9003 40.9975,27.8943 40.9265,27.8943" id="Fill-3" fill="#2B4375"></path>
        <path d="M3.1839,36.6252 C2.8319,36.6252 2.2429,37.3522 1.7309,38.4242 C1.1299,39.6832 0.8009,40.8752 0.8009,43.1402 C0.8009,48.8842 5.5449,54.7372 12.3509,54.7372 C12.6009,54.7372 12.8549,54.7292 13.1109,54.7132 C19.4059,54.3152 22.9819,49.5482 22.9819,44.6892 C22.9819,42.3962 21.6649,39.8092 18.9529,39.8092 C18.8959,39.8092 18.8389,39.8112 18.7809,39.8132 C15.5719,39.9392 15.0619,42.0402 15.0619,43.2002 C15.0619,46.0622 16.2919,47.5882 16.1319,48.3032 C16.0239,48.7862 14.8529,49.0232 13.8469,49.0232 C13.8119,49.0232 13.7769,49.0222 13.7429,49.0222 C10.2379,48.9652 5.0889,44.7282 3.6919,37.4302 C3.6359,37.1322 3.5319,36.6262 3.1849,36.6252 L3.1849,36.6252" id="Fill-5" fill="#2F5790"></path>
        <path d="M12.5454,15.248 C5.3514,15.248 0.8004,20.719 0.8004,26.809 C0.8004,28.403 1.2454,30.463 1.7354,31.621 C2.1904,32.695 2.6934,33.65 3.0934,33.65 C3.5544,33.65 3.5914,33 3.6754,32.375 C4.2514,28.112 6.6564,24.944 9.3274,23.426 C11.4284,22.233 13.5204,21.851 15.4554,21.851 C17.4414,21.851 19.2634,22.253 20.7614,22.591 C20.8904,22.62 21.0134,22.636 21.1244,22.636 C21.3914,22.636 21.5974,22.549 21.6934,22.36 C21.8054,22.14 21.7264,21.89 21.3794,21.525 C19.9884,20.06 16.7884,16.877 16.3874,16.542 C15.4134,15.73 13.8044,15.248 12.5454,15.248" id="Fill-7" fill="#3E6FA5"></path>
        <path d="M41.955,0.515 C41.607,0.515 41.27,0.531 40.951,0.558 C38.743,0.748 37.534,1.269 36.709,1.652 C36.267,1.857 35.901,2.111 35.901,2.357 C35.901,2.579 36.376,2.847 36.596,3.014 C37.474,3.681 38.16,4.231 40.069,6.229 C41.539,7.769 43.42,10.419 44.206,12.235 C44.817,13.646 45.127,16.654 44.822,19.712 C44.777,20.173 44.822,20.476 45.024,20.63 C45.085,20.676 45.155,20.695 45.229,20.695 C45.476,20.695 45.768,20.482 45.915,20.349 C46.309,19.995 49.304,17.015 50.702,15.487 C51.647,14.457 51.964,12.67 51.964,10.684 C51.964,9.015 51.741,6.549 50.146,4.511 C47.664,1.338 44.474,0.515 41.955,0.515" id="Fill-9" fill="#3E6FA5"></path>
        <path d="M26.5149,0.515 C23.9959,0.515 20.8059,1.338 18.3239,4.511 C16.7289,6.549 16.5059,9.015 16.5059,10.684 C16.5059,12.67 16.8229,14.457 17.7679,15.487 C19.1659,17.015 22.1609,19.995 22.5549,20.349 C22.7019,20.482 22.9939,20.695 23.2409,20.695 C23.3149,20.695 23.3849,20.676 23.4459,20.63 C23.6479,20.476 23.6929,20.173 23.6479,19.712 C23.3429,16.654 23.6529,13.646 24.2639,12.235 C25.0499,10.419 26.9309,7.769 28.4009,6.229 C30.3089,4.231 30.9959,3.681 31.8739,3.014 C32.0939,2.847 32.5689,2.579 32.5689,2.357 C32.5689,2.111 32.2029,1.857 31.7609,1.652 C30.9359,1.269 29.7269,0.748 27.5189,0.558 C27.1989,0.531 26.8629,0.515 26.5149,0.515" id="Fill-11" fill="#2F5790"></path>
        <path d="M15.3986,23.5151 C9.9756,23.5151 5.4556,27.3371 5.1516,34.1961 C4.8586,40.8091 9.8636,46.7711 13.1096,47.4211 C13.3146,47.4621 13.4856,47.4811 13.6266,47.4811 C14.2846,47.4811 14.2766,47.0531 14.0546,46.4111 C13.6836,45.3381 12.8466,42.5701 14.2106,40.4331 C15.2666,38.7781 16.7716,38.3521 17.9306,38.2441 C18.2686,38.2131 18.7206,38.1871 18.9386,38.1611 C19.7926,38.0601 20.0256,37.8131 20.0256,37.2351 L20.0256,32.4411 C20.0256,31.2231 20.2566,30.8761 20.8466,30.2871 C21.5066,29.6271 23.1486,27.9841 23.9716,27.1621 C24.6006,26.5331 24.4546,26.0381 24.0116,25.6961 C22.6166,24.6171 18.5966,23.5151 15.3986,23.5151" id="Fill-13" fill="#F0A92C"></path>
        <path d="M65.2859,36.6252 L65.2849,36.6252 C64.9379,36.6262 64.8339,37.1322 64.7779,37.4302 C63.3809,44.7282 58.2329,48.9652 54.7279,49.0222 C54.6929,49.0222 54.6579,49.0232 54.6239,49.0232 C53.6169,49.0232 52.4459,48.7862 52.3379,48.3032 C52.1789,47.5882 53.4079,46.0622 53.4079,43.2002 C53.4079,42.0402 52.8979,39.9392 49.6889,39.8132 C49.6309,39.8112 49.5739,39.8092 49.5169,39.8092 C46.8049,39.8092 45.4879,42.3962 45.4879,44.6892 C45.4879,49.5482 49.0649,54.3152 55.3589,54.7132 C55.6149,54.7292 55.8689,54.7372 56.1189,54.7372 C62.9249,54.7372 67.6699,48.8842 67.6699,43.1402 C67.6699,40.8752 67.3409,39.6832 66.7389,38.4242 C66.2269,37.3522 65.6379,36.6252 65.2859,36.6252" id="Fill-15" fill="#3E6FA5"></path>
        <path d="M55.9243,15.248 C54.6653,15.248 53.0563,15.73 52.0823,16.542 C51.6813,16.877 48.4813,20.06 47.0903,21.525 C46.7433,21.89 46.6643,22.14 46.7763,22.36 C46.8733,22.549 47.0783,22.636 47.3453,22.636 C47.4573,22.636 47.5793,22.62 47.7083,22.591 C49.2073,22.253 51.0283,21.851 53.0143,21.851 C54.9493,21.851 57.0413,22.233 59.1433,23.426 C61.8143,24.944 64.2193,28.112 64.7943,32.375 C64.8783,33 64.9153,33.65 65.3763,33.65 C65.7763,33.65 66.2793,32.695 66.7343,31.621 C67.2243,30.463 67.6703,28.403 67.6703,26.809 C67.6703,20.719 63.1183,15.248 55.9243,15.248" id="Fill-17" fill="#2F5790"></path>
        <path d="M53.0714,23.5151 C49.8734,23.5151 45.8534,24.6171 44.4584,25.6961 C44.0154,26.0381 43.8694,26.5331 44.4984,27.1621 C45.3214,27.9841 46.9634,29.6271 47.6234,30.2871 C48.2124,30.8761 48.4444,31.2231 48.4444,32.4411 L48.4444,37.2351 C48.4444,37.8131 48.6774,38.0601 49.5314,38.1611 C49.7494,38.1871 50.2014,38.2131 50.5394,38.2441 C51.6984,38.3521 53.2034,38.7781 54.2594,40.4331 C55.6224,42.5701 54.7864,45.3381 54.4154,46.4111 C54.1934,47.0531 54.1854,47.4811 54.8434,47.4811 C54.9844,47.4811 55.1554,47.4621 55.3604,47.4211 C58.6064,46.7711 63.6114,40.8091 63.3184,34.1961 C63.0144,27.3371 58.4934,23.5151 53.0714,23.5151" id="Fill-19" fill="#F0A92C"></path>
        <path d="M44.7126,53.0182 C44.3546,53.0182 44.0136,53.1952 43.6966,53.5202 C42.3456,54.9022 41.4726,55.7212 39.8546,56.9402 C39.0356,57.5562 39.0116,58.3622 39.5396,59.0742 C40.0456,59.7572 40.9166,60.5812 41.7056,61.3202 C42.6296,62.1862 44.3116,62.8102 46.1396,62.8102 C46.5916,62.8102 47.0536,62.7722 47.5136,62.6892 C51.0966,62.0502 52.2796,59.1852 52.2036,56.7112 C52.1856,56.0902 51.9276,55.7282 51.6586,55.5972 C51.4636,55.5022 51.2856,55.4742 51.1026,55.4742 C50.9746,55.4742 50.8446,55.4882 50.7026,55.5012 C50.5616,55.5142 50.4096,55.5272 50.2376,55.5272 C50.1556,55.5272 50.0686,55.5242 49.9766,55.5172 C48.1046,55.3622 46.8236,54.5412 45.7826,53.5362 C45.4156,53.1822 45.0566,53.0182 44.7126,53.0182" id="Fill-21" fill="#F0A92C"></path>
        <path d="M23.7573,53.0182 C23.4133,53.0182 23.0543,53.1822 22.6873,53.5362 C21.6463,54.5412 20.3653,55.3622 18.4933,55.5172 C18.4013,55.5242 18.3143,55.5272 18.2323,55.5272 C18.0603,55.5272 17.9083,55.5142 17.7673,55.5012 C17.6253,55.4882 17.4953,55.4742 17.3673,55.4742 C17.1843,55.4742 17.0063,55.5022 16.8123,55.5972 C16.5423,55.7282 16.2843,56.0902 16.2663,56.7112 C16.1903,59.1852 17.3733,62.0502 20.9563,62.6892 C21.4173,62.7722 21.8783,62.8102 22.3303,62.8102 C24.1573,62.8102 25.8403,62.1862 26.7643,61.3202 C27.5533,60.5812 28.4243,59.7572 28.9303,59.0742 C29.4583,58.3622 29.4343,57.5562 28.6153,56.9402 C26.9983,55.7212 26.1243,54.9022 24.7733,53.5202 C24.4563,53.1952 24.1153,53.0182 23.7573,53.0182" id="Fill-23" fill="#F0A92C"></path>
        <path d="M34.2349,3.7624 C33.2159,3.7624 31.5439,5.3244 29.6269,7.3384 C27.7439,9.3154 25.8119,12.2264 25.5029,13.7654 C25.1939,15.3044 24.7769,18.5194 25.8909,23.1734 C26.2069,24.4914 26.9359,24.6174 27.7599,24.6174 L40.7089,24.6174 C41.5329,24.6174 42.2629,24.4914 42.5779,23.1734 C43.6919,18.5194 43.2749,15.3044 42.9659,13.7654 C42.6589,12.2264 40.7259,9.3154 38.8429,7.3384 C36.9249,5.3244 35.2519,3.7624 34.2349,3.7624" id="Fill-25" fill="#ED952D"></path>
        <path d="M36.723,59.122 C36.654,59.122 36.582,59.127 36.505,59.137 C35.881,59.218 35.158,59.781 34.235,59.781 C33.312,59.781 32.589,59.218 31.964,59.137 C31.888,59.127 31.816,59.122 31.747,59.122 C31.335,59.122 31.026,59.302 30.611,59.717 C29.91,60.42 28.899,61.519 28.228,62.343 C27.744,62.937 27.087,63.928 27.989,66.239 C29.096,69.078 33.071,72.82 34.235,72.82 C35.399,72.82 39.374,69.078 40.481,66.239 C41.383,63.928 40.726,62.937 40.242,62.343 C39.57,61.519 38.56,60.42 37.858,59.717 C37.444,59.302 37.135,59.122 36.723,59.122" id="Fill-27" fill="#ED952D"></path>
        <path d="M94.776,16.2443 C91.157,16.2443 90.584,17.6773 90.584,18.5373 C90.584,22.6563 101.081,21.4743 101.081,29.3553 C101.081,34.5853 96.567,37.0933 90.764,37.0933 C85.677,37.0933 84.387,34.5853 84.387,32.3643 C84.387,31.9343 84.387,31.6123 84.495,31.1823 C84.602,30.8233 84.853,30.6443 85.354,30.8963 C87.217,31.7913 88.865,32.1493 90.549,32.1493 C93.2,32.1493 95.278,31.3973 95.278,29.5703 C95.278,25.4153 84.781,26.2753 84.781,18.5723 C84.781,13.7003 88.256,11.3003 95.099,11.3003 C96.245,11.3003 98.072,11.4443 99.326,11.7663 C99.647,11.8383 99.791,12.0883 99.755,12.3753 L99.182,16.2083 C99.11,16.6383 98.895,16.6743 98.501,16.6023 C97.248,16.3513 95.779,16.2443 94.776,16.2443" id="Fill-29" fill="#2B4375"></path>
        <path d="M145.7279,11.4799 C149.3109,11.4799 150.1699,12.6979 150.9229,14.7749 L157.3699,32.8659 C158.0509,34.7289 158.5889,35.5529 158.9469,36.0539 C159.0539,36.1979 159.0539,36.4119 158.9109,36.5199 C158.4449,36.8779 157.5499,37.2719 156.0809,37.2719 C153.6089,37.2719 152.1409,36.3769 151.4239,34.2629 L150.6359,31.8989 C150.5279,31.5409 150.3489,31.4329 149.9909,31.4329 L140.5699,31.4329 C140.2469,31.4329 140.1039,31.5769 139.9969,31.8989 L138.5269,36.2329 C138.4199,36.5199 138.2409,36.7349 137.8109,36.7349 L133.0469,36.7349 C132.6169,36.7349 132.3299,36.3409 132.4739,35.9109 L139.3869,16.3879 C137.4889,16.1009 136.6289,14.9189 136.4139,12.2679 C136.3779,11.8379 136.6649,11.6589 137.0949,11.6589 C140.0679,11.6589 142.7549,11.4799 145.7279,11.4799 M149.0599,26.0239 L146.2299,17.0319 C146.0509,16.4589 145.7999,16.2089 145.3339,16.2089 L144.8679,16.2089 L141.7159,26.0589 C141.6439,26.3109 141.7519,26.4539 142.0379,26.4539 L148.7729,26.4539 C149.0599,26.4539 149.1319,26.3109 149.0599,26.0239" id="Fill-31" fill="#2B4375"></path>
        <path d="M160.5771,12.2677 C160.5411,11.8377 160.8271,11.6587 161.2581,11.6587 C163.1571,11.6237 164.7681,11.4797 166.2011,11.4797 C167.9571,11.4797 169.1751,12.4467 169.1751,14.4537 L169.1751,26.9917 C169.1751,30.3587 170.8941,32.1137 173.9391,32.1137 C176.9841,32.1137 178.7041,30.3587 178.7041,26.9917 L178.7041,12.1967 C178.7041,11.9097 178.9541,11.6587 179.2411,11.6587 L183.7911,11.6587 C184.0771,11.6587 184.3281,11.9097 184.3281,12.1967 L184.3281,28.1727 C184.3281,33.8697 180.4951,37.0577 173.9391,37.0577 C167.0971,37.0577 163.5501,34.1557 163.5501,28.1727 L163.5501,16.3877 C161.6521,16.1007 160.7921,14.9187 160.5771,12.2677" id="Fill-33" fill="#2B4375"></path>
        <path d="M201.6759,16.9964 L201.6759,28.8534 C201.6759,31.5044 202.2489,32.1494 203.7539,32.3644 C204.1479,32.4364 204.8289,32.4364 205.2219,32.4004 C205.7599,32.3284 205.9389,32.6514 205.8319,33.2964 C205.5449,35.0504 203.8609,37.0934 200.9239,37.0934 C197.4489,37.0934 196.0519,35.2664 196.0519,30.5734 L196.0519,16.9964 C196.0519,16.7814 195.9079,16.6384 195.6929,16.6384 L189.9619,16.6384 C189.6749,16.6384 189.4239,16.3874 189.4239,16.1014 L189.4239,12.1964 C189.4239,11.9094 189.6749,11.6594 189.9619,11.6594 L207.7659,11.6594 C208.0519,11.6594 208.3039,11.9094 208.3039,12.1964 L208.3039,16.1014 C208.3039,16.3874 208.0519,16.6384 207.7659,16.6384 L202.0339,16.6384 C201.8189,16.6384 201.6759,16.7814 201.6759,16.9964" id="Fill-35" fill="#2B4375"></path>
        <path d="M110.9451,11.4799 C112.6291,11.4799 113.8831,12.7339 113.8831,14.4169 L113.8831,22.9789 L121.7281,12.3749 C122.0501,11.9089 122.5521,11.6589 123.2321,11.6589 L127.6391,11.6589 C128.2831,11.6589 128.6061,12.1239 128.2121,12.6619 L120.1511,23.3009 C120.0441,23.4449 120.0441,23.5879 120.1511,23.7309 C123.3751,27.8869 127.6741,33.9759 129.3581,35.5529 C129.6801,35.8389 129.5731,36.0899 129.3581,36.2689 C128.8201,36.6989 127.8181,37.2719 126.4561,37.2719 C123.7701,37.2719 122.3371,36.1619 120.8321,34.0129 L113.8831,24.1259 L113.8831,36.1979 C113.8831,36.4839 113.6321,36.7349 113.3451,36.7349 L108.7961,36.7349 C108.5091,36.7349 108.2581,36.4839 108.2581,36.1979 L108.2581,16.3879 C106.3601,16.1009 105.5001,14.9189 105.2851,12.2679 C105.2491,11.8379 105.5361,11.6589 105.9661,11.6589 C107.7211,11.6589 109.1901,11.4799 110.9451,11.4799" id="Fill-37" fill="#2B4375"></path>
        <polygon id="Fill-40" fill="#324986" points="96.456 62.7188 93.456 62.7188 87.048 54.7027 87.048 62.7188 84.84 62.7188 84.84 46.5188 87.048 46.5188 87.048 54.1508 93.48 46.5188 96.216 46.5188 89.352 54.3428"></polygon>
        <path d="M105.576,50.5988 L105.48,52.7108 C104.184,52.4722 103.221,52.7963 102.588,53.6843 C101.9565,54.5723 101.64,55.9838 101.64,57.9188 L101.64,62.7188 L99.48,62.7188 L99.48,52.4947 C98.8245,52.3837 98.1285,52.3042 97.392,52.2548 L97.392,50.9588 C98.8965,50.7847 100.2885,50.7278 101.568,50.7908 C101.568,51.7837 101.481,52.7287 101.304,53.6228 L101.352,53.6228 C101.64,52.6477 102.129,51.8693 102.816,51.2843 C103.5045,50.7007 104.424,50.4728 105.576,50.5988 L105.576,50.5988 L105.576,50.5988 Z" id="Fill-41" fill="#324986"></path>
        <path d="M118.584,62.5507 C117.0645,62.7278 115.689,62.7833 114.456,62.7188 C114.456,61.5848 114.4965,60.7928 114.576,60.3427 L114.528,60.3427 C114.225,61.0958 113.712,61.7167 112.992,62.2043 C112.272,62.6932 111.432,62.9348 110.472,62.9348 C109.4805,62.9348 108.681,62.6528 108.072,62.0842 C107.4645,61.5173 107.16,60.7522 107.16,59.7908 C107.16,58.4963 107.796,57.4763 109.068,56.7323 C110.34,55.9882 112.0965,55.6163 114.336,55.6148 L114.336,54.8228 C114.336,53.9602 114.1365,53.3212 113.736,52.9042 C113.337,52.4888 112.665,52.2803 111.72,52.2788 C110.4405,52.2803 109.2645,52.5757 108.192,53.1668 L107.832,51.3667 C109.2405,50.8238 110.64,50.5523 112.032,50.5508 C113.6805,50.5523 114.837,50.8973 115.5,51.5842 C116.1645,52.2727 116.496,53.2567 116.496,54.5347 L116.496,61.0148 C117.153,61.1288 117.849,61.2082 118.584,61.2548 L118.584,62.5507 L118.584,62.5507 Z M114.336,57.4387 L114.336,57.1268 C110.976,57.1283 109.296,57.8963 109.296,59.4308 C109.296,59.9602 109.461,60.3923 109.788,60.7283 C110.1165,61.0643 110.553,61.2323 111.096,61.2307 C112.0245,61.2323 112.797,60.8482 113.412,60.0803 C114.0285,59.3123 114.336,58.4318 114.336,57.4387 L114.336,57.4387 L114.336,57.4387 Z" id="Fill-42" fill="#324986"></path>
        <path d="M124.224,47.0228 C124.224,47.4083 124.089,47.7368 123.816,48.0083 C123.5445,48.2813 123.2085,48.4162 122.808,48.4162 C122.409,48.4162 122.0685,48.2843 121.788,48.0203 C121.509,47.7563 121.368,47.4247 121.368,47.0243 C121.368,46.6252 121.509,46.2893 121.788,46.0163 C122.0685,45.7448 122.409,45.6083 122.808,45.6083 C123.2085,45.6083 123.5445,45.7448 123.816,46.0163 C124.089,46.2893 124.224,46.6238 124.224,47.0228 L124.224,47.0228 L124.224,47.0228 Z M123.888,64.0388 C123.888,65.6872 123.5805,66.8947 122.964,67.6627 C122.349,68.4307 121.281,68.8147 119.76,68.8147 C119.136,68.8147 118.5855,68.7427 118.104,68.5987 L118.296,66.7027 C118.8255,66.8947 119.328,66.9907 119.808,66.9907 C120.561,66.9907 121.068,66.7987 121.332,66.4147 C121.596,66.0307 121.728,65.3032 121.728,64.2307 L121.728,52.4947 C121.0725,52.3837 120.3765,52.3042 119.64,52.2548 L119.64,50.9588 C121.1445,50.7847 122.5605,50.7278 123.888,50.7908 L123.888,64.0388 L123.888,64.0388 Z" id="Fill-43" fill="#324986"></path>
        <path d="M143.184,51.1747 C143.184,52.7603 142.6005,54.0562 141.432,55.0643 C140.265,56.0723 138.7605,56.5763 136.92,56.5748 C136.344,56.5763 135.912,56.5598 135.624,56.5268 L135.624,62.7188 L133.416,62.7188 L133.416,46.5188 C135.0165,46.4558 136.344,46.4243 137.4,46.4227 C139.2405,46.4243 140.664,46.8533 141.672,47.7082 C142.68,48.5648 143.184,49.7198 143.184,51.1747 L143.184,51.1747 L143.184,51.1747 Z M140.88,51.3908 C140.88,49.2968 139.641,48.2483 137.16,48.2468 C136.44,48.2483 135.9285,48.2557 135.624,48.2707 L135.624,54.6548 C135.993,54.7208 136.4325,54.7522 136.944,54.7508 C138.144,54.7358 139.101,54.4283 139.812,53.8283 C140.5245,53.2283 140.88,52.4168 140.88,51.3908 L140.88,51.3908 L140.88,51.3908 Z" id="Fill-44" fill="#324986"></path>
        <path d="M152.712,50.5988 L152.616,52.7108 C151.32,52.4722 150.357,52.7963 149.724,53.6843 C149.0925,54.5723 148.776,55.9838 148.776,57.9188 L148.776,62.7188 L146.616,62.7188 L146.616,52.4947 C145.9605,52.3837 145.2645,52.3042 144.528,52.2548 L144.528,50.9588 C146.0325,50.7847 147.4245,50.7278 148.704,50.7908 C148.704,51.7837 148.617,52.7287 148.44,53.6228 L148.488,53.6228 C148.776,52.6477 149.265,51.8693 149.952,51.2843 C150.6405,50.7007 151.56,50.4728 152.712,50.5988 L152.712,50.5988 L152.712,50.5988 Z" id="Fill-45" fill="#324986"></path>
        <path d="M165.72,62.5507 C164.2005,62.7278 162.825,62.7833 161.592,62.7188 C161.592,61.5848 161.6325,60.7928 161.712,60.3427 L161.664,60.3427 C161.361,61.0958 160.848,61.7167 160.128,62.2043 C159.408,62.6932 158.568,62.9348 157.608,62.9348 C156.6165,62.9348 155.817,62.6528 155.208,62.0842 C154.6005,61.5173 154.296,60.7522 154.296,59.7908 C154.296,58.4963 154.932,57.4763 156.204,56.7323 C157.476,55.9882 159.2325,55.6163 161.472,55.6148 L161.472,54.8228 C161.472,53.9602 161.2725,53.3212 160.872,52.9042 C160.473,52.4888 159.801,52.2803 158.856,52.2788 C157.5765,52.2803 156.4005,52.5757 155.328,53.1668 L154.968,51.3667 C156.3765,50.8238 157.776,50.5523 159.168,50.5508 C160.8165,50.5523 161.973,50.8973 162.636,51.5842 C163.3005,52.2727 163.632,53.2567 163.632,54.5347 L163.632,61.0148 C164.289,61.1288 164.985,61.2082 165.72,61.2548 L165.72,62.5507 L165.72,62.5507 Z M161.472,57.4387 L161.472,57.1268 C158.112,57.1283 156.432,57.8963 156.432,59.4308 C156.432,59.9602 156.597,60.3923 156.924,60.7283 C157.2525,61.0643 157.689,61.2323 158.232,61.2307 C159.1605,61.2323 159.933,60.8482 160.548,60.0803 C161.1645,59.3123 161.472,58.4318 161.472,57.4387 L161.472,57.4387 L161.472,57.4387 Z" id="Fill-46" fill="#324986"></path>
        <path d="M178.08,62.7188 L175.92,62.7188 L175.92,55.0388 C175.92,54.1447 175.7685,53.4728 175.464,53.0243 C175.161,52.5773 174.6405,52.3523 173.904,52.3508 C172.929,52.3523 172.116,52.7963 171.468,53.6843 C170.82,54.5723 170.496,55.6808 170.496,57.0067 L170.496,62.7188 L168.336,62.7188 L168.336,46.9028 C167.6805,46.7918 166.9845,46.7123 166.248,46.6628 L166.248,45.3667 C167.7525,45.1928 169.1685,45.1358 170.496,45.1988 L170.496,50.8628 C170.496,51.8723 170.433,52.6643 170.304,53.2388 L170.352,53.2628 C170.7045,52.4318 171.24,51.7763 171.96,51.2963 C172.68,50.8163 173.529,50.5763 174.504,50.5748 C176.889,50.5763 178.08,51.8482 178.08,54.3908 L178.08,62.7188 L178.08,62.7188 Z" id="Fill-47" fill="#324986"></path>
        <path d="M192.648,62.5507 C191.1285,62.7278 189.753,62.7833 188.52,62.7188 C188.52,61.5848 188.5605,60.7928 188.64,60.3427 L188.592,60.3427 C188.289,61.0958 187.776,61.7167 187.056,62.2043 C186.336,62.6932 185.496,62.9348 184.536,62.9348 C183.5445,62.9348 182.745,62.6528 182.136,62.0842 C181.5285,61.5173 181.224,60.7522 181.224,59.7908 C181.224,58.4963 181.86,57.4763 183.132,56.7323 C184.404,55.9882 186.1605,55.6163 188.4,55.6148 L188.4,54.8228 C188.4,53.9602 188.2005,53.3212 187.8,52.9042 C187.401,52.4888 186.729,52.2803 185.784,52.2788 C184.5045,52.2803 183.3285,52.5757 182.256,53.1668 L181.896,51.3667 C183.3045,50.8238 184.704,50.5523 186.096,50.5508 C187.7445,50.5523 188.901,50.8973 189.564,51.5842 C190.2285,52.2727 190.56,53.2567 190.56,54.5347 L190.56,61.0148 C191.217,61.1288 191.913,61.2082 192.648,61.2548 L192.648,62.5507 L192.648,62.5507 Z M188.4,57.4387 L188.4,57.1268 C185.04,57.1283 183.36,57.8963 183.36,59.4308 C183.36,59.9602 183.525,60.3923 183.852,60.7283 C184.1805,61.0643 184.617,61.2323 185.16,61.2307 C186.0885,61.2323 186.861,60.8482 187.476,60.0803 C188.0925,59.3123 188.4,58.4318 188.4,57.4387 L188.4,57.4387 L188.4,57.4387 Z" id="Fill-48" fill="#324986"></path>
    </g>
</svg>