<svg preserveAspectRatio="none" width="240px" height="167px" viewBox="19 413 240 167" version="1.1" xmlns="http://www.w3.org/2000/svg" xmlns:xlink="http://www.w3.org/1999/xlink">
    <path d="M243,416.2 C248.5,416.7 256.6,418.6 257.3,429.2 C259.2,460.3 258.1,556.7 258,563.6 C257.9,570.4 253.3,573.9 248.9,574.3 C189.1,579 48.6,579.3 35.5,579 C22.4,578.6 19.2,571.8 19.2,565 C19.2,565 20.2,438.6 20.8,429.3 C21.3,420 23.7,416.9 30.3,416.2 C37,415.6 85.8,414.2 135.2,413.7 C184.5,413.3 233.4,415.3 243,416.2 L243,416.2 Z" id="Shape"></path>
</svg>